<?xml version="1.0" encoding="utf-8"?>

<svg version="1.0" id="Layer_1" xmlns="http://www.w3.org/2000/svg" x="0px" y="0px"
	 viewBox="0 0 851.5 567.3" style="enable-background:new 0 0 851.5 567.3;" xml:space="preserve">
<style type="text/css">
	.st0{fill:url(#path4719_00000174598004064034121300000018214035707093668736_);}
	.st1{fill:none;}
	.st2{fill:url(#path4743_00000065036957692389340880000008196924025810121142_);}
	.st3{fill:#FFFFFF;}
	.st4{fill:#0A3152;}
</style>
<g id="g4699">
	<g id="g4705">
		<g id="g4711">
			
				<linearGradient id="path4719_00000095296407739110807130000009014642933101412794_" gradientUnits="userSpaceOnUse" x1="135.7704" y1="-230.9238" x2="143.3804" y2="-230.9238" gradientTransform="matrix(17.89 21.57 -21.57 17.89 -7348.6748 1385.6333)">
				<stop  offset="0" style="stop-color:#EF3B23"/>
				<stop  offset="1" style="stop-color:#8B131E"/>
			</linearGradient>
			<path id="path4719" style="fill:url(#path4719_00000095296407739110807130000009014642933101412794_);" d="M166.4,173.7
				c-58.7,1.8-105.9,49.8-105.9,108.9c0,60.2,48.7,109,108.9,109.1c0,0,0,0,0.1,0c20,0,74.1-8.4,99.6-64.7
				c-11.2,4.6-23.3,6.9-35.4,6.9c-52,0-94-33.7-94-85.6c-0.1-26.7,8-48.2,20.4-64c2.5-3.2,6.6-7.7,9.4-10.6L166.4,173.7"/>
		</g>
	</g>
</g>
<g id="g4721">
	<rect id="SVGID" x="70" y="173.6" class="st1" width="208.6" height="218.1"/>
	<g id="g4723">
		<g id="g4729">
			<g id="g4735">
				
					<linearGradient id="path4743_00000086658600302859393320000000164283455848032950_" gradientUnits="userSpaceOnUse" x1="124.2039" y1="-221.6793" x2="131.8039" y2="-221.6793" gradientTransform="matrix(24.02 0 0 24.02 -2921.5203 5607.417)">
					<stop  offset="0" style="stop-color:#B7212F"/>
					<stop  offset="1" style="stop-color:#EF3B23"/>
				</linearGradient>
				<path id="path4743" style="fill:url(#path4743_00000086658600302859393320000000164283455848032950_);" d="M179.3,184.3
					c16.3,21.8,20.1,42.7,20.1,64.1c0,52-42.1,85.6-94,85.6c-12.1,0-24.2-2.3-35.4-6.9c26,57.9,79.6,64.7,99.6,64.7
					c60.2,0,109-48.9,109-109.1c0-59.1-47.2-107.1-105.9-108.9l-3.2-0.1C172.4,176.5,176.9,180.9,179.3,184.3"/>
			</g>
		</g>
	</g>
</g>
<g id="g4745">
	<path id="path4747" class="st3" d="M158.3,186.7c-11.4,15.8-18.7,36.4-18.6,61.2c0.1,27.2,11.7,49.9,30,64.9
		c19.4-15.7,30.4-39.5,29.8-64.4c-0.2-20.3-2.1-39.3-19.7-63.5c-3.1-4-6.5-7.8-10.2-11.2C169.3,173.7,162.7,180.5,158.3,186.7"/>
</g>
<g id="g4749">
	<path id="path4751" class="st4" d="M331.5,236.3v28.5c1.9,0.2,3.9,0.3,6.1,0.4s4.1,0.1,6,0.1c3.3,0,6.5-0.2,9.8-0.7
		c2.7-0.4,5.4-1.1,7.8-2.4c2.1-1,3.9-2.6,5.3-4.5c1.4-2.2,2.1-4.7,2-7.3c0-5.3-1.9-9-5.8-11.1s-9.2-3.1-16-3.1L331.5,236.3z
		 M331.5,222.9h12c6.5,0,11.6-0.9,15.2-2.8c3.7-1.9,5.5-5.2,5.5-9.9c0-4.5-1.9-7.7-5.7-9.6s-8.8-2.8-14.9-2.8c-2.6,0-4.9,0-6.9,0.1
		s-3.8,0.2-5.2,0.4L331.5,222.9z M343,279.5c-5,0-10-0.2-15-0.5c-4.5-0.2-8.9-0.9-13.2-2v-90.8c2-0.4,4.1-0.7,6.3-1s4.5-0.6,6.9-0.7
		s4.7-0.3,6.9-0.4s4.5-0.1,6.5-0.1c5.3,0,10.6,0.4,15.8,1.3c4.4,0.7,8.7,2.1,12.6,4.3c3.4,1.8,6.3,4.5,8.3,7.8c2.1,3.6,3.1,7.8,3,12
		c0.1,4-1,8-3.2,11.4c-2.3,3.2-5.3,5.8-8.9,7.5c5.7,1.9,9.9,4.7,12.5,8.4c2.7,3.7,4,8.4,4.1,14c0,9.6-3.5,16.9-10.5,21.7
		C368.3,277.1,357.5,279.5,343,279.5"/>
</g>
<g id="g4753">
	<path id="path4755" class="st4" d="M418.7,266.9c3.8,0.1,7.7-0.2,11.5-0.8V248c-1.3-0.4-2.6-0.6-3.9-0.8c-1.9-0.3-3.8-0.4-5.6-0.4
		c-1.8,0-3.6,0.1-5.5,0.4c-1.7,0.2-3.4,0.7-5,1.5c-1.4,0.7-2.7,1.7-3.6,3c-0.9,1.5-1.4,3.2-1.3,4.9c0,3.9,1.2,6.5,3.6,8
		S414.6,266.9,418.7,266.9 M417.4,206c4.6-0.1,9.2,0.5,13.6,2c3.4,1.1,6.4,3.1,8.8,5.7c2.3,2.5,3.9,5.6,4.7,8.8
		c1,3.7,1.5,7.6,1.4,11.4v42.8c-2.5,0.5-6.3,1.2-11.4,2c-5.7,0.8-11.4,1.2-17.2,1.1c-3.9,0.1-7.8-0.3-11.6-1.2c-3.2-0.7-6.3-2-9-3.9
		c-2.5-1.8-4.5-4.2-5.8-7c-1.5-3.4-2.2-7-2.1-10.7c-0.1-3.6,0.7-7.1,2.4-10.2c1.5-2.8,3.7-5.1,6.4-6.8c2.9-1.8,6-3.1,9.4-3.8
		c3.7-0.8,7.4-1.2,11.1-1.1c1.9,0,3.8,0.1,5.7,0.4c2.1,0.2,4.3,0.6,6.3,1.1v-2.7c0-1.8-0.2-3.6-0.7-5.4c-0.4-1.7-1.2-3.2-2.4-4.5
		c-1.2-1.4-2.7-2.4-4.5-3c-2.3-0.8-4.6-1.1-7-1.1c-3.5,0-6.9,0.3-10.4,0.8c-2.6,0.4-5.2,1-7.7,1.9l-2-13.2c2.9-0.9,6-1.6,9-2.1
		c4.2-0.7,8.5-1.1,12.7-1.1"/>
</g>
<g id="g4757">
	<path id="path4759" class="st4" d="M457.2,210.1c9.5-2.5,19.2-3.8,29-3.8c4.9-0.2,9.8,0.6,14.4,2.3c3.6,1.4,6.8,3.6,9.2,6.6
		c2.4,3,4,6.5,4.8,10.3c1,4.3,1.5,8.7,1.4,13.1v39.7h-16.3v-37.1c0.1-3.2-0.2-6.5-0.8-9.6c-0.4-2.3-1.2-4.5-2.4-6.5
		c-1.1-1.7-2.7-2.9-4.6-3.6c-2.3-0.8-4.7-1.2-7.1-1.2c-2.2,0-4.3,0.1-6.5,0.4c-2.3,0.3-3.9,0.5-5,0.7v57h-16.3"/>
</g>
<g id="g4761">
	<path id="path4763" class="st4" d="M540.2,242.9c0,7.2,1.7,12.8,5.1,16.9s8.1,6.1,14.2,6.1c2.2,0,4.5-0.1,6.7-0.3
		c1.5-0.2,3-0.4,4.5-0.8v-40.5c-1.8-1.2-3.7-2.1-5.8-2.8c-2.4-0.9-5-1.3-7.6-1.3c-5.9,0-10.3,2-13,6.1S540.2,236,540.2,242.9
		 M587,276.2c-9,2.6-18.3,3.9-27.7,3.9c-5.1,0.1-10.2-0.8-15-2.6c-4.3-1.6-8.1-4.1-11.3-7.4c-3.2-3.3-5.6-7.3-7.1-11.6
		c-1.7-4.9-2.6-10.1-2.5-15.3c-0.1-5.1,0.6-10.3,2.1-15.2c1.2-4.3,3.3-8.2,6.1-11.7c2.7-3.2,6.1-5.8,9.9-7.5
		c4.2-1.8,8.8-2.7,13.4-2.6c3,0,6.1,0.4,9,1.2c2.3,0.7,4.6,1.6,6.8,2.7v-33.9l16.3-2.7"/>
</g>
<g id="g4765">
	<path id="path4767" class="st4" d="M599,278.4v-102l16.3-2.7v35c2-0.7,4.1-1.3,6.3-1.6c2.3-0.4,4.7-0.7,7.1-0.7
		c5.7,0,10.4,0.8,14.1,2.4c3.5,1.4,6.6,3.7,8.9,6.6c2.3,3,4,6.5,4.8,10.2c1,4.3,1.5,8.7,1.4,13.1v39.7h-16.3v-37.1
		c0-3.2-0.2-6.5-0.8-9.6c-0.4-2.3-1.2-4.5-2.5-6.5c-1.1-1.6-2.7-2.9-4.5-3.6c-2.2-0.8-4.6-1.2-7-1.2c-2.2,0-4.4,0.2-6.6,0.7
		c-1.7,0.3-3.4,0.7-5,1.2v56.1"/>
</g>
<g id="g4769">
	<path id="path4771" class="st4" d="M693.6,266.9c3.8,0.1,7.7-0.2,11.5-0.8V248c-1.3-0.4-2.6-0.6-3.9-0.8c-1.9-0.3-3.8-0.4-5.6-0.4
		c-1.8,0-3.7,0.1-5.5,0.4c-1.7,0.2-3.4,0.7-5,1.5c-1.4,0.7-2.7,1.7-3.6,3c-0.9,1.5-1.4,3.2-1.3,4.9c0,3.9,1.2,6.5,3.6,8
		S689.4,266.9,693.6,266.9 M692.2,206c4.6-0.1,9.2,0.5,13.6,2c6.7,2.1,11.9,7.6,13.6,14.5c1,3.7,1.4,7.6,1.4,11.4v42.8
		c-2.5,0.5-6.3,1.2-11.4,2c-5.7,0.8-11.5,1.2-17.2,1.1c-3.9,0-7.8-0.4-11.6-1.2c-3.2-0.7-6.3-2-9-3.9c-2.5-1.8-4.5-4.2-5.8-7
		c-1.5-3.4-2.2-7-2.1-10.7c-0.1-3.6,0.7-7.1,2.4-10.2c1.5-2.8,3.7-5.1,6.4-6.8c2.9-1.8,6.1-3.1,9.4-3.8c3.7-0.8,7.4-1.2,11.1-1.1
		c1.9,0,3.8,0.1,5.7,0.4c2.1,0.2,4.3,0.6,6.3,1.1v-2.7c0-1.8-0.2-3.6-0.7-5.4c-0.4-1.7-1.2-3.2-2.4-4.5c-1.2-1.4-2.7-2.4-4.4-3
		c-2.2-0.8-4.6-1.1-7-1.1c-3.5,0-7,0.3-10.4,0.8c-2.6,0.4-5.2,1-7.7,1.9l-2-13.2c2.9-0.9,6-1.6,9-2.1
		C683.7,206.4,687.9,206,692.2,206"/>
</g>
<g id="g4773">
	<path id="path4775" class="st4" d="M732,210.1c4-1.1,8.1-1.9,12.3-2.6c5.5-0.8,11.1-1.2,16.7-1.2c5.8,0,10.6,0.8,14.4,2.4
		c3.6,1.4,6.8,3.7,9.3,6.6c2.4,3,4,6.5,4.8,10.3c1,4.3,1.4,8.7,1.4,13.2v39.7h-16.3v-37.1c0.1-3.2-0.2-6.5-0.7-9.6
		c-0.4-2.3-1.2-4.5-2.4-6.5c-1.1-1.7-2.7-2.9-4.6-3.6c-2.3-0.8-4.7-1.2-7.1-1.2c-2.2,0-4.3,0.1-6.5,0.4c-2.2,0.3-3.9,0.5-5,0.7v57
		H732"/>
</g>
<g id="g4777">
	<path id="path4779" class="st4" d="M325.5,347.3v37c1.3,0.2,3.4,0.4,6.1,0.6c2.7,0.2,5.4,0.4,8.2,0.4c4,0,8.1-0.3,12.1-0.8
		c3.6-0.5,7.1-1.5,10.3-3c2.9-1.3,5.3-3.4,7.1-6c1.9-2.9,2.9-6.3,2.7-9.7c0.1-3.1-0.5-6.2-1.9-9c-1.2-2.4-3.1-4.3-5.4-5.7
		c-2.6-1.5-5.5-2.5-8.6-2.9c-3.7-0.6-7.5-0.8-11.3-0.8L325.5,347.3z M325.5,339.4h17.8c3.2,0,6.3-0.3,9.4-0.8
		c2.7-0.4,5.4-1.3,7.8-2.7c2.2-1.3,4-3.1,5.2-5.2c1.3-2.6,2-5.5,1.9-8.4c0.1-2.7-0.6-5.4-2-7.7c-1.4-2.2-3.4-4-5.7-5.2
		c-2.8-1.4-5.8-2.4-8.9-2.9c-3.7-0.6-7.5-0.9-11.3-0.9c-3.3,0-6.1,0.1-8.4,0.3s-4.2,0.4-5.7,0.7L325.5,339.4z M338.8,393
		c-1.5,0-3.3-0.1-5.3-0.2s-4.1-0.3-6.2-0.5s-4.1-0.5-6-0.8s-3.5-0.6-4.9-1v-90c1.8-0.5,3.6-0.9,5.4-1.1c2-0.3,4-0.6,6.1-0.8
		s4.2-0.4,6.2-0.5s3.9-0.1,5.6-0.1c4.8,0,9.6,0.4,14.4,1.2c4.2,0.7,8.2,2,12,4c3.3,1.8,6.1,4.4,8.2,7.5c2.1,3.5,3.1,7.5,3,11.5
		c0.1,4.6-1.2,9.1-3.8,12.9c-2.5,3.5-6.2,6.1-10.3,7.4c2.6,0.6,5.1,1.5,7.4,2.7c2.2,1.2,4.2,2.7,5.9,4.5c1.8,1.9,3.1,4.2,4,6.8
		c1,3.1,1.5,6.3,1.4,9.5c0,8.8-3.5,15.6-10.5,20.2S353.5,393,338.8,393"/>
</g>
<g id="g4781">
	<path id="path4783" class="st4" d="M414,385.9c3.4,0,6.4-0.1,9-0.3c2.2-0.2,4.4-0.5,6.5-0.9v-24.6c-1.5-0.6-3.1-1.1-4.7-1.4
		c-2.9-0.6-5.9-0.8-8.9-0.7c-2.3,0-4.5,0.2-6.8,0.5c-2.3,0.3-4.4,1-6.5,2c-1.9,1-3.6,2.5-4.9,4.2c-1.4,2.1-2,4.6-1.9,7.2
		c-0.1,2.3,0.4,4.5,1.3,6.6c0.8,1.7,2.1,3.3,3.6,4.4c1.7,1.1,3.6,1.9,5.7,2.3C409.1,385.6,411.6,385.9,414,385.9 M413.3,320.8
		c4-0.1,8,0.6,11.7,1.9c3,1.2,5.6,3,7.8,5.4c2,2.4,3.5,5.2,4.3,8.2c0.9,3.3,1.4,6.8,1.3,10.2v44c-1.3,0.4-2.6,0.7-3.9,0.9
		c-1.7,0.3-3.7,0.7-6,1s-4.7,0.7-7.5,0.9s-5.5,0.3-8.5,0.3c-3.4,0-6.9-0.4-10.2-1.2c-2.9-0.7-5.7-2-8.1-3.8
		c-2.3-1.8-4.2-4.1-5.4-6.8c-1.4-3.2-2.1-6.6-2-10.1c-0.1-3.4,0.7-6.7,2.2-9.7c1.4-2.7,3.5-5,6.1-6.7c2.8-1.9,6-3.2,9.3-3.9
		c3.9-0.8,7.8-1.2,11.7-1.2c1.3,0,2.7,0.1,4,0.2c1.4,0.1,2.7,0.3,4,0.5s2.4,0.5,3.4,0.7c0.7,0.1,1.3,0.3,2,0.6v-4.3
		c0-2.4-0.2-4.7-0.5-7.1c-0.3-2.2-1.1-4.3-2.4-6.2c-1.3-1.9-3-3.4-5.1-4.5c-2.7-1.2-5.7-1.8-8.7-1.7c-5.1,0-9,0.3-11.5,1.1
		s-4.4,1.3-5.5,1.8l-1.2-7.7c2.3-0.9,4.7-1.6,7.1-2C405.5,321.1,409.3,320.8,413.3,320.8"/>
</g>
<g id="g4785">
	<path id="path4787" class="st4" d="M452,324.9c2.6-0.7,6.1-1.5,10.5-2.4c5.3-1,10.8-1.4,16.2-1.4c4.5-0.1,9,0.6,13.3,2.3
		c3.4,1.4,6.3,3.6,8.5,6.5c2.2,3,3.7,6.5,4.5,10.2c1,4.3,1.4,8.7,1.4,13.1v39h-8.8V356c0.1-4.2-0.3-8.4-1-12.5
		c-0.5-3-1.7-5.9-3.4-8.4c-1.6-2.1-3.7-3.8-6.2-4.7c-3.1-1-6.4-1.5-9.6-1.4c-3.6,0-7.2,0.2-10.7,0.7c-2,0.2-4,0.6-5.9,1.2v61.2H452"
		/>
</g>
<g id="g4789">
	<path id="path4791" class="st4" d="M537.5,354.2c3.4,2.4,6.6,5,9.7,7.8c3.2,2.9,6.4,6.1,9.6,9.5s6.1,6.9,8.9,10.5
		c2.5,3.3,4.9,6.7,7.1,10.2h-10.6c-2.2-3.7-4.6-7.1-7.3-10.4c-5.4-6.6-11.4-12.5-18-17.9c-2.5-2.1-5.3-4-8.1-5.6v33.9H520V289.1
		l8.8-1.6v65c1.9-1.6,4.2-3.8,7-6.6c2.8-2.8,5.7-5.6,8.5-8.4s5.7-5.5,8.3-8.2c2.6-2.6,4.8-4.9,6.5-6.9h10.8c-2,2.2-4.4,4.6-7.1,7.2
		l-8.4,8.2l-8.5,8.4C542.9,349.1,540.2,351.7,537.5,354.2"/>
</g>
</svg>
