<svg version="1.2" xmlns="http://www.w3.org/2000/svg" viewBox="0 0 1550 1292" width="1550" height="1292"><style>.a{fill:#f26522}</style><path fill-rule="evenodd" class="a" d="m850.4 1291.1l-621.3 0.5 4.4-22 452.9-13c86.6-3.3 170.9-7.7 252.5-35.6 167.3-55.9 300.8-169.8 339.9-310.9 42.2-151.1-54.6-298.3-236.8-311 154.4-45 285.9-142.8 320.9-268.8 45.5-163.8-36.7-246.2-175.6-276.5 231-3.6 411.8 74.1 350.4 295.2-35 126-169.8 222-323.1 263.6 180 13.5 279 185 231 334.7-49.6 155.5-175.1 252.2-342.4 308.2-81.9 27.6-166.2 32.3-252.8 35.6z"/><path fill-rule="evenodd" class="a" d="m524.3 1212.8l-291.6 14.6c0-7.5 0.2-5.8-0.6-13l738.5-218.6 2.5-26.7-754.5 195.2c-2.2-7.2-2.5-5.3-5.8-11.9l789.8-437.5-7.7-21.8-807.2 417.4c-4.7-6.9-2.7-4.1-8.2-10.2l938.9-877-11.6-23.7-962.1 869.5c-4.4-3.3-7.4-5.5-12.1-8.5l688.1-990.8-29 0.2-704.3 970.2c-3.9-1.4-8.3-2.8-12.4-3.9l409.1-967.9h-26.2l-440 960.5c-5.5 0-17.9 0.3-17.9 0.3l284.8-1028.9 532 1.6c251.7-14.3 450.4 53.5 385.1 288.7-35 125.7-166.8 223.6-320 265.5l-1.1 3.3c182.2 12.7 285 159.6 242.8 310.7-39.1 140.9-179.4 251.1-346.8 307.1-81.6 27.6-165.9 32.3-252.5 35.6z"/></svg>