<svg version="1.2" xmlns="http://www.w3.org/2000/svg" viewBox="0 0 1545 1525" width="1545" height="1525"><style>.a{fill:#0089cf;stroke:#fff;stroke-miterlimit:10;stroke-width:11}.b{fill:#fff}.c{fill:#0089cf}</style><path fill-rule="evenodd" class="a" d="m1538.9 5.6v1513.7h-1533.1v-1513.7z"/><path fill-rule="evenodd" class="b" d="m1500.9 43v1438.4h-1456.7v-1438.4z"/><path fill-rule="evenodd" class="c" d="m1242.6 392.6c-30-35.3-61.8-67-97.9-96.5-40.6-31.3-87.3-58.7-134-79.8-12.8-4-25.6-8.4-36.2-12.4-4.4-2.2-6.6-2.2-8.4-4.4-2.2 0-6.6-2.2-11-2.2-4-1.7-10.6-3.9-14.6-3.9-53.3-16.8-110.6-25.2-167.9-25.2-70.6 0-140.7 12.4-204.2 35.7-34.4 12.4-68.3 29.1-100.1 46.3-2.2 1.8-4.4 4-6.1 4q-19.4 12.8-38.4 25.1c-30 21.2-57.8 46.3-85.1 71.4-6.6 8.4-12.8 16.8-21.2 23.4-17.2 20.7-34.3 44.1-51.1 67-59.5 92.6-95.7 203.6-95.7 321.3 0 117.3 36.2 228.8 95.7 320.9 16.8 23.4 33.9 46.3 51.1 67.5 8.4 8.4 14.6 14.5 21.2 22.9 27.3 25.1 55.1 50.3 85.1 71.4q19 12.8 38.4 25.1c1.7 0 3.9 2.3 6.1 4.5 31.8 18.9 65.7 33.5 100.1 46.2 63.5 23 133.6 35.7 204.2 35.7 57.3 0 114.6-8.8 167.9-23.3 4-2.2 10.6-4 14.6-6.2 4.4 0 8.8-2.2 11-2.2 1.8-2.2 4-2.2 8.4-2.2 10.6-6.2 23.4-10.1 36.1-14.5 46.8-21.2 93.5-48.5 134.1-79.8 36.1-27.4 67.9-60.9 97.9-96.6 82.9-100.9 131.8-228.7 131.8-369.4 0-138.8-48.9-268.8-131.8-369.8zm-97.9 814.6c-40.6 31.8-87.3 61.3-134 82-12.8 4.4-25.6 10.6-36.2 15-4.4 0-6.6 1.8-8.4 1.8-2.2 2.2-6.6 2.2-11 4.4-4 2.2-10.6 2.2-14.6 3.9-53.3 16.8-110.6 25.6-167.9 25.6-70.6 0-140.7-15-204.2-37.9-34.4-12.8-68.3-29.5-100.1-48.5-2.2 0-4.4-2.2-6.1-4q-19.4-12.8-38.4-25.5c-30-23-59.5-48.1-85.1-75.4-6.6-8.4-12.8-16.8-21.2-25.1-19.4-23-36.1-48.5-51.1-73.7-48.9-83.7-76.7-182.4-76.7-287.4 0-104.9 27.8-203.6 76.7-287.8 15-25.1 31.7-50.3 51.1-73.2 8.4-8.8 14.6-17.2 21.2-25.5 25.6-27.4 55.1-52.5 85.1-75.4q19-12.8 38.4-25.1c1.7-2.3 3.9-2.3 6.1-4.5 31.8-18.9 65.7-35.7 100.1-48 63.5-23.4 133.6-35.7 204.2-35.7 57.3 0 114.6 8.4 167.9 22.9 4 2.2 10.6 4.4 14.6 6.2 4.4 0 8.8 2.2 11 2.2 1.8 2.2 4 2.2 8.4 2.2 10.6 6.2 23.4 10.6 36.1 14.5 46.8 23.4 93.5 50.7 134.1 84.2 36.1 29.1 70.1 63.1 97.9 100.5 72.3 97 114.6 214.3 114.6 342.5 0 127.9-42.3 245.6-114.6 342.1-27.8 37.9-61.8 71.4-97.9 102.7zm153-375.6c-6.6-27.3-21.2-44-42.8-44-4 0-8.4 2.2-12.3 3.9-6.6 4.4-11.1 10.6-11.1 19h-14.5c1.8-14.6 4-31.3 4-48.1h70.1l11-16.7h-83.3v-16.8h-12.4c1.8 12.4 1.8 23 1.8 33.5 2.2 83.8-21.2 161.4-63.5 228.8-34.4 52.5-81.1 98.8-134.1 132.3-12.7 8.3-25.5 14.5-36.1 21.1-2.2 1.8-6.6 1.8-8.4 4-2.2 0-6.6 2.2-11 4.4-4 1.8-10.6 4-14.6 6.2-53.3 21.1-108.4 33.5-167.9 33.5-38.4 0-76.8-6.2-112.9-14.6l-2.2-15h-15c-12.4-25.1-29.6-37.4-49-41.8v14.5c17.2 0 25.6 12.8 32.2 31.7q-28.6-9.7-57.3-25.1c0 0-2.2-2.2-4.4-2.2l-6.6 10.6c4.4 2.2 8.8 4 11 4 6.2 4.4 10.6 6.6 14.6 8.3l-4 12.8-10.6-2.2h-6.6c-12.8-20.7-29.5-33.5-48.9-33.5-19 0-34 16.8-12.8 58.6l15-6.1c-12.8-12.4-19-27.4-8.4-35.7 8.4-10.6 21.2-2.2 33.9 16.7l-2.2 4.4 2.2 12.4c10.6-1.8 21.2-1.8 27.8-1.8 21.2 0 31.8 8.4 29.6 18.5-2.2 10.6-15 12.8-29.6 10.6-4.4 0-11-1.8-15-4v19c6.2 1.7 10.6 1.7 15 1.7 21.2-1.7 36.2-10.5 40.1-25.1 4.4-14.5-2.2-25.1-12.7-29.1l2.2-10.6c12.7 4 25.5 10.6 38.3 12.4l-18.9 63 6.1 19 27.8-75.4c38.4 10.1 76.3 14.5 116.8 14.5l2.3 35.8c-40.6 14.5-64 14.5-66.2 2.2-2.2-10.6 15-17.2 38.4-8.4 2.2-4.4 6.6-8.8 10.6-10.6-19-10.6-36.2-10.6-51.2-2.2-25.1 10.6-18.9 27.3-1.8 37.9 21.2 10.6 46.8 6.2 70.2-2.2v19l2.2 3.9 10.5 8.4v-35.7c8.4-4 14.6-6.2 21.2-10.1 15-10.6 40.6-19 46.7-4.5 4.4 12.8-18.9 21.2-38.3 16.8-2.2 6.2-4 12.8-6.2 16.7 16.8 2.3 44.5 4.5 52.9-14.5 8.8-21.2 2.2-39.7-27.3-39.7-15-2.2-32.2 6.2-49 14.6v-27.4c55.2 0 106.3-10.5 155.2-29.5l2.2 4.4 4 10.6-4 4c-38.3 16.7-34.3 48.5-10.5 58.6 1.7 0 6.1 2.2 10.5 2.2 4 0 10.6 0 14.6-2.2 4.4-1.8 8.8-6.2 11-10.1 6.2-10.6 8.4-25.2 4-42.4l4.4-1.7 29.5-15 6.7 8.4 12.7 27.3h19l-31.7-63-8.4-14.6c1.7 0 3.9-2.2 8.4-4.4 25.5-14.5 48.9-33.5 70.1-52.5l10.5 15c-31.7 12.4-48.9 37.5-31.7 52.5 8.4 6.2 33.9-4.4 44.5-15 10.6-12.3 23.4-6.2 15 6.6-8.8 12.4-21.1 19-38.3 22.9v8.4l23.3-4-6.1 14.6 12.3 2.2 6.6-15 27.8-4h10.6v-14.5h-25.6c12.8-15 17.2-31.7 2.2-40.1-15-10.6-27.8 4.4-40.6 16.7-15 15-23.3-2.2-12.7-8.3 10.5-8.4 23.3-16.8 33.9-25.2l-19-25.1q28.7-28.2 51.2-63c4-6.2 8.4-12.8 12.8-21.2 12.8-4 29.5-6.2 37.9 2.2 25.6 23.4 4.4 48.5-8.4 50.3-16.7 4.4-15-14.6 2.2-26.9-4.4-4.4-6.6-8.8-8.4-12.8-25.5 16.7-27.7 44.1-2.2 54.7 16.8 8.3 42.4-8.4 46.8-29.6 10.6-46.3-31.8-58.6-59.5-52.4 6.1-8.4 10.5-19 14.9-27.4l61.8 25.2 6.1 4.4 19-10.6-25.1-10.6-55.6-22.9c12.8-33.5 23.4-67.5 27.8-103.2h19l4.4 16.8c-15 18.9-23.4 40.1-15 59.1 4.4 10.5 10.6 14.5 19.4 16.7 16.7 2.2 40.1-14.5 42.3-40.1l-15 2.2c-6.2 15-15 25.1-27.3 21.2h-2.2c-10.6-6.2-8.9-19 2.2-35.7l1.7-2.3 4.4 6.2 15-12.3c-21.1-31.8-19.4-59.1-6.6-60.9 15-2.2 25.6 20.8 23.4 44.1zm-323.2 348.3l-8.4 2.2-4.4 2.2-6.2-15-2.2-4h2.2c4.4-2.2 8.4-4.4 10.6-4.4 2.2-1.8 6.2-1.8 8.4-4q6.6-3 12.8-6.1l10.6 16.7zm-406.1-749.8c-38.4 23.4-72.3 52.5-100.1 86.4-1.8 1.8-4 6.2-6.2 8.4-15 18.9-27.7 37.5-38.3 58.6-27.8 52.5-44.6 113.3-44.6 178.5 0 65.3 16.8 126.1 44.6 178.6 10.6 20.7 23.3 39.6 38.3 58.6 2.2 2.2 4.4 6.2 6.2 8.4 27.8 35.7 61.7 63 100.1 85.9 59.5 35.7 129.6 56.9 204.1 56.9 59.6 0 116.9-12.8 168-35.7 4.4-4 10.6-6.2 15-8.4 4.4-2.2 8.4-4.4 10.6-6.2 2.2-2.2 4.4-2.2 8.4-4.4 11-6.1 23.3-14.5 36.1-22.9 59.5-46.3 108.5-109.3 134.1-182.9 14.9-39.7 21.1-83.8 21.1-127.9 0-44-6.2-88.1-21.1-128.2-25.6-73.2-74.6-136.2-134.1-180.3-12.8-10.6-25.1-16.8-36.1-25.2-4-2.2-6.2-2.2-8.4-4.4-2.2-2.2-6.2-3.9-10.6-6.1-4.4-2.2-10.6-4.4-15-6.2-51.1-25.6-108.4-37.9-168-37.9-74.5 0-144.6 20.7-204.1 56.4zm387.1 8.4c4.4 2.2 8.4 4.4 10.6 6.6 2.2 0 6.6 2.2 8.4 4 12.8 8.3 23.3 16.7 36.1 25.1 70.6 56.9 119.1 138.8 134.1 231 2.2 18.9 4.4 37.9 4.4 56.8 0 19-2.2 39.7-4.4 56.9-15 92.1-63.5 174.1-134.1 230.5-12.8 10.6-23.3 19-36.1 25.6-1.8 1.8-6.2 4-8.4 4-2.2 2.2-6.2 4.4-10.6 6.1-4.4 4.5-10.6 6.7-15 8.4-51.1 25.6-108.4 40.1-168 40.1-74.5 0-144.6-22.9-204.1-58.6-38.4-25.6-72.3-56.9-100.1-94.8-1.8-3.9-4-6.1-6.2-10.5q-22.5-31.3-38.3-69.3c-16.8-44-27.8-89.9-27.8-138.4 0-48.5 11-94.3 27.8-138.4q15.8-34.8 38.3-69.6c2.2-1.8 4.4-6.2 6.2-10.2 27.8-35.7 61.7-69.6 100.1-92.5 59.5-37.9 129.6-60.9 204.1-60.9 59.6 0 116.9 14.6 168 39.7 4.4 2.2 10.6 4.4 15 8.4zm-186.9-25.1c-2.2-4-8.9-6.2-11.1-1.8-12.7 10.1-27.3 0-23.3 33.5l6.6 16.7c-17.2 12.4-8.8 25.2-4.4 41.9v12.8l-4.4 6.2c-6.2-2.2-12.4-6.2-14.6-14.6h-17.2c0 4 0 8.4 2.2 10.2h6.2c2.2 12.8 11 25.5 21.6 25.5v18.6h-8.8c-4-6.2-6.2-16.8-12.8-16.8h-8.4c-8.4 0 0 15 8.4 19 2.2 10.5 11 14.9 21.6 18.9v16.8c-6.6 2.2-17.2 2.2-21.6-16.8h-14.6v14.6l10.6 2.2c2.2 12.7 10.6 21.1 21.2 27.3v14.5l-8.4 2.2c-4.4-3.9-6.6-10.5-6.6-14.5h-19v12.3h8.4c2.2 15 10.6 23.4 23.4 29.6v21.1h-10.6c-6.2-4.4-8.4-8.3-8.4-12.8h-19.4v12.8l8.8 1.8c6.2 8.8 14.6 18.9 23.4 21.2l2.2 23.3c0 0-19.4 1.8-19.4-6.6v-10.6h-16.7v12.8c1.7 0 3.9 2.2 6.1 2.2q9.7 19 25.6 31.3l-2.2 21.2h-10.6l-2.2-14.6h-21.1v8.4c2.2 4 6.1 6.2 10.5 6.2l2.2 6.1c6.2 12.8 12.8 19 21.2 19v31.3c-8.4 0-19-6.2-21.2-20.7h-14.9v12.3l8.3 4.4c4.4 19 12.8 27.4 23.4 33.5v44.1l-10.6 14.6h-16.7v21.1h-25.6v-386.1h-172.4v400.7h576.3v-400.7h-170.2v386.1h-25.2v-22.9h-19.4l-8.3-12.8v-44.1c6.1-8.4 10.5-3.9 18.9-21.1l4.4-12.4c4.4-2.2 6.2-10.6 6.2-18.9h-16.8c0 16.7-14.9 22.9-23.3 22.9v-31.3c6.2-2.2 10.6-2.2 18.9-12.8l6.7-10.1c3.9-2.2 6.1-4.4 8.3-8.4v-8.4h-21.1l-2.2 14.6h-23.4v-21.2c10.6-6.2 25.6-12.3 27.8-27.3 1.7 0 10.6-6.2 12.3-6.2v-12.8h-16.7l-6.7 10.6c-3.9 8.4-23.3 6.6-21.1 6.6v-23.3c10.6-4 21.1-10.6 25.6-19l10.5-4v-16.7h-18.9c0 6.2-4.4 12.3-10.6 16.7h-10.6v-21.1c10.6-6.2 23.4-10.6 25.1-25.2l11.1-4.4v-12.3h-19.4c0 4-6.2 10.6-8.4 14.5h-10.6v-16.7c10.6-6.2 16.8-14.6 19-27.3l12.8-2.2v-14.6h-19c-4.4 19-12.8 19-17.2 16.8v-16.8c10.6-6.2 10.6-8.4 21.2-18.9 8.8-4 15-23 6.6-20.8h-8.4c-6.6 0-6.6 10.2-11 14.6-1.8 0-8.4 2.2-12.8 2.2v-19c11-2.2 23.8-10.5 25.6-23.3h6.6c0-1.8 0-6.2 2.2-10.2h-17.2c-2.2 8.4-8.4 12.4-15 14.6-8.4-6.2-10.6-6.2-12.8-16.8 0-14.5 15-27.3 4.4-44.1l-2.2-10.5c0-16.8-6.2-19-12.8-25.2-2.2-2.2-3.9-6.1-3.9-12.7zm276.4 172.3v369.4h-142.8v-369.4zm-40.6 73.6c-12.8-10.6-19-25.1-30-37.9-1.8-2.2-6.2-3.9-8.4-6.2-2.2-2.2-4.4-4.4-8.3-6.1 0 0 0-2.2-2.2-2.2-4.5-2.2-10.6-4.4-15-6.6h-21.2l8.4 14.9h15c4.4 0 8.3 2.3 12.8 4 2.2 0 2.2 2.2 4.4 2.2 1.7 2.2 3.9 4.4 6.1 8.4 2.2 2.2 6.6 4.4 8.4 8.4 4.4 6.6 11 15 17.2 21.1h-6.2c-4.4-4.4-8.8-6.1-11-10.6-4-2.2-6.2-3.9-8.4-6.1-2.2-2.2-6.1-4.4-10.5-6.6 0-1.8-2.3-1.8-2.3-1.8q-6.1-6.6-12.7-6.6c-2.2-1.8-2.2-1.8-4-1.8h-17.2l10.6 16.8h12.8l12.8 8.4 10.5 8.3h-44.5l8.4 23h61.7v25.1c-4.4-6.2-10.6-10.2-17.2-12.4h-18.9c-6.2 0-10.6 2.2-15 6.2-8.4 4.4-12.8 12.8-10.6 21.2 0 8.3 4.4 14.5 10.6 20.7 4.4 2.2 8.8 6.6 15 6.6 4.4 1.8 6.1 1.8 10.5 1.8h8.4c6.6-1.8 12.8-6.2 17.2-10.2v29.1l19 10.6 2.2 2.2v-103.2h15l-10.6-20.7zm-49 77.6c-4.4 0-6.6-2.2-8.3-4q-6.6-9.7 6.1-18.9l2.2 6.2 10.6 14.5 2.2 2.2zm36.2-12.8c-2.2 2.2-6.6 6.6-10.6 8.8l-6.6-10.5-8.4-10.6v-2.2c2.2 0 6.2-2.2 8.4-2.2 6.6 0 12.8 2.2 15 6.6h2.2zm18.9 155.2c-2.2-2.3-3.9-2.3-6.1-2.3 2.2-1.7 3.9-1.7 6.1-3.9 2.2-2.2 6.7-8.4 6.7-16.8q0-9.7-6.7-18.9c-6.1-4.4-12.7-8.4-25.5-8.4h-49v102.7h42.8c19 0 25.6-1.8 31.7-8.4 6.7-6.1 10.6-14.5 10.6-22.9 0-8.4-3.9-16.7-10.6-21.1zm134.1 214.2c-7.1 0-12.8-5.6-12.8-12.6 0-6.9 5.7-12.5 12.8-12.5 7 0 12.8 5.6 12.8 12.5 0 7-5.8 12.6-12.8 12.6zm-767.6-470.4l8.3-2.2c27.8-37.4-8.3-111-40.1-161.3l78.5 26.9 25.6 8.8-25.6-90.4-6.2-23.3 6.2 2.2 38.3 16.7 6.2 4.4 51.2 23c19.4 8.3 38.3 2.2 48.9-12.4 8.4-10.6 10.6-25.5 8.4-42.3h-8.4c4.4 37.9-10.6 50.7-42.3 33.5l-57.8-26.9-6.2-2.2-38.3-18.9-27.8-12.8 27.8 94.8 8.4 27.3-8.4-4.4-85.1-29.6-21.2-8.3c6.2 12.7 15 27.3 21.2 40.1 30 52.4 59.5 109.3 38.4 157.3zm329.8-377.7l42.3 98.7 23.3-37.9 40.6-60.8 34 104.9c10.5 31.3 51.1 41.9 78.4 4l-6.1-6.2c-23.4 29.5-42.8 27.3-53.4-6.2l-42.3-136.6-51.2 84.2-14.9 22.9-46.8-108.9c-23.3 64.8-40.1 153-104 176.3l6.1 4c46.8-6.2 79-82 94-138.4zm-238.6 774.5c-1.7 0-3.9 0-6.2 2.2-4.4 2.2-6.6 4.4-6.6 10.6 0 3.9 2.2 8.3 6.6 10.5 2.3 0 4.5 1.8 6.2 1.8 8.8 0 15-6.2 15-12.3 0-8.4-6.2-12.8-15-12.8zm515-104.9h-27.8v-29.6h27.8c8.4 0 14.6 4.4 14.6 12.8 0 10.6-4 16.8-14.6 16.8zm-342.6-329.8v369.9h-142.4v-369.9zm314.8 262.8h25.6c8.4 0 14.5 2.2 14.5 10.5 0 8.4-6.1 10.6-14.5 10.6h-25.6zm19-443c10.6 4.4 21.1 4.4 36.1 4.4 36.2-2.2 78.9-18.9 110.7-35.7l-46.7 98.7 70.1-10.5 46.7-8.4-46.7 79.8-10.6 16.7c-10.6 19-6.2 39.7 10.6 52.5 8.3 6.2 21.1 10.6 38.3 8.4v-8.4c-23.3 0-36.1-4.4-38.3-16.8v-6.6c0-6.1 4.4-12.3 8.3-20.7l76.8-121.7-85.1 14.6-40.2 6.2 40.2-82 12.7-25.2c-4.4 2.2-8.3 4.5-12.7 4.5-42.4 18.9-91.3 41.8-134.1 44-12.8 0-25.5 0-36.1-4.4-4 0-6.2-1.7-8.4-1.7-2.2-2.2-6.2-2.2-10.6-4.4v8.3c4.4 2.2 6.2 4.4 10.6 6.2 2.2 0 4.4 2.2 8.4 2.2zm229.7 247.7h70.1l8.8-16.7h-68.3zm10.5 22.9l-12.3 17.2h72.3l8.4-19-40.6 1.8zm-641.9 235.4l-4.4-15-15-67h-31.8v102.7h21.2v-85.9l18.9 85.9h21.6l19-85.9v85.9h19v-102.7h-29.6zm-234.1-270.6h-67.9l-4.4 6.1-6.2 12.8h72.3zm601.9 602.6c-2.2 0-6.6-2.2-8.4-2.2-12.8-8.4-11-23.4 8.4-31.8 2.2 0 6.1-1.7 10.5-1.7 8.4 18.5 2.3 37.5-10.5 35.7zm69-596.4c-7.7 0-13.9-6.1-13.9-13.7 0-7.5 6.2-13.6 13.9-13.6 7.7 0 13.9 6.1 13.9 13.6 0 7.6-6.2 13.7-13.9 13.7zm-477.3 35.7v27.3c-17.2 6.2-19.4 12.4-8.4 29.1 4 8.8 12.8 15 23.4 15 6.1-6.2 3.9-12.8 3.9-23.4h38.4v44.1l19 15v-107.1h15l-6.2-21.2h-102.3l6.6 21.2zm57.3 0v27.3h-38.3v-27.3zm-250.9-2.2h-68.4l-3.9 4.4-8.4 12.3h71.9zm85.1 338.1c-16.8-21.1-31.8-46.3-44.6-71.4l4.4-4.4-6.6-12.3c12.8-25.2 15-46.3 8.8-63.1l-12.7 6.2c8.3 15 3.9 29.5-6.7 42.3-14.9-33.9-23.3-69.6-27.7-107.1 0-15-1.8-31.7-1.8-46.3h-10.6v33.5l-8.8 2.2h-16.8c-4.4-35.7-19.4-46.3-33.9-44.1-11 2.3-21.6 14.6-21.6 31.3 0 15 6.6 25.2 21.6 31.8 4 0 10.6 1.7 14.5 1.7l4.5 31.8-19 3.9h-6.6q-3.1-15.4-12.8-31.2l-8.4 4.4c12.8 25.1 2.2 41.8-10.6 29.1-15-12.4-4.4-38 0-54.7l-6.6-1.8c-10.6 23-16.7 44.1 0 69.2 12.8 19 25.6 12.4 38.4 2.2l6.6-2.2 50.7-6.6 19.4-3.9c0 6.1 1.8 10.5 1.8 14.5 6.6 21.2 15 42.3 23.8 63l-11 4.4c-4-10.5-6.2-21.1-12.8-27.3-4-8.4-12.4-15-21.2-16.7h-10.6c-21.1 1.7-29.5 18.9-25.6 45.8l-14.5-10.1-15-8.4-6.6 10.1 21.6 15 19 10.6-8.4 8.4-8.8-6.6-1.8 2.2-12.8 10.5 6.2 8.4c2.2 2.2 4.4 4.4 6.6 4.4 4 0 8.4-2.2 10.6-4.4l18.9-10.6 19 4.5 2.2-2.3 8.8-10.5c-2.2-4-4.4-6.2-8.8-8.4-4-4-8.4-4-14.5-6.2-11.1-10.6-12.8-35.7 6.1-35.7 4.4 0 6.2 0 8.4 2.2 8.8 6.2 15 22.9 19.4 48.1l1.8-2.2 29.9-10.2c8.4 16.8 17.2 33.5 27.8 48.1-6.6 31.7-23.3 33.5-40.5 10.6-12.8 31.3-12.8 58.6 40.5 73.6l-15 14.5 4.4 16.8 38-31.3 23.3-19q6.6 6.2 12.8 12.4l2.2-1.8 6.6-6.6q-3.1-3.1-6.6-6.2-22-18.9-38.3-44.1zm-106.3-174.1l-12.8 1.8-4-31.3h16.8l12.8-2.2 4.4 29.5zm-46.7-46.3h-4.4c-4.5 0-8.4-3.9-8.4-10.6-2.2-6.1 0-14.5 6.1-14.5 0-2.2 2.3-2.2 2.3 0 4.4 0 8.3 4 10.5 10.6 2.2 6.1 0 12.3-6.1 14.5zm153 264.5l-15 10.6c-25.6-4.4-46.8-14.6-46.8-35.7 25.6 12.8 40.6 6.2 46.8-21.2l15 16.8 14.9 18.9z"/></svg>