<?xml version="1.0" encoding="UTF-8"?>
<svg version="1.1" xmlns="http://www.w3.org/2000/svg" width="658" height="524">
<path d="M0 0 C7.73377143 4.72786027 11.42577801 12.33393943 15.5 20.125 C16.18879133 21.41197332 16.87933923 22.69800787 17.5715332 23.9831543 C19.00703863 26.65142482 20.43495845 29.32355063 21.85791016 31.99853516 C24.89978239 37.70085852 28.04291182 43.34680643 31.18026733 48.99694824 C36.40999198 58.42360416 41.57282002 67.88540177 46.6875 77.375 C50.8260962 85.05354347 55.05597998 92.67155255 59.375 100.25 C64.56107216 109.35137971 69.54017493 118.55441431 74.45846558 127.80218506 C78.6745315 135.72466336 82.98367448 143.58339678 87.4375 151.375 C92.51913534 160.26963809 97.38709241 169.26426886 102.1875 178.3125 C107.54903554 188.41670958 112.98496089 198.46919228 118.57568359 208.44873047 C121.67324179 213.99715061 124.74183095 219.56166808 127.8125 225.125 C128.15597473 225.74711365 128.49944946 226.36922729 128.85333252 227.01019287 C134.11466376 236.54297764 139.31973597 246.105008 144.49414062 255.68530273 C148.35135719 262.82055443 152.26933062 269.919405 156.21875 277.00390625 C159.76585084 283.36883459 163.29044528 289.7461905 166.8125 296.125 C167.15669983 296.74823151 167.50089966 297.37146301 167.85552979 298.01358032 C172.50978073 306.4441862 177.11874786 314.89766746 181.6875 323.375 C185.87073176 331.13476959 190.14304132 338.83647918 194.5 346.5 C199.05889068 354.54147287 203.59991493 362.59210758 208.0625 370.6875 C208.866875 372.12029297 208.866875 372.12029297 209.6875 373.58203125 C218.14445751 389.03265591 222.22777564 406.58843784 217.5 423.9375 C213.8784283 434.00165715 207.6831228 442.21972419 198 447 C192.49651449 449.3426578 187.94200238 450.48838843 181.92037964 450.36436462 C180.76339894 450.35074588 180.76339894 450.35074588 179.58304489 450.33685201 C169.39628449 450.0933197 159.34877851 448.59352411 149.27392578 447.17016602 C147.05132979 446.86533916 144.82858748 446.56157764 142.60571289 446.25878906 C136.62581737 445.4411523 130.64808184 444.6086364 124.6706605 443.7731297 C118.39838092 442.89892556 112.12424132 442.03827419 105.85031128 441.17601013 C95.33382222 439.72876027 84.81857931 438.27277365 74.30419922 436.81030273 C63.49394194 435.30669615 52.68282465 433.80950364 41.87060547 432.32006836 C40.86849992 432.18202117 40.86849992 432.18202117 39.84614982 432.04118515 C37.16039891 431.67122106 34.47464515 431.30127778 31.78888679 430.93136779 C19.59048902 429.2511234 7.39287119 427.56522928 -4.8046875 425.87890625 C-6.04104242 425.7080618 -7.27739734 425.53721735 -8.55121756 425.3611958 C-15.64458065 424.38080701 -22.7376091 423.39806015 -29.8301239 422.41155243 C-31.97950619 422.1128981 -34.12899096 421.81498029 -36.27858353 421.51784325 C-39.20610453 421.11300455 -42.13323409 420.70544757 -45.06027222 420.2971344 C-45.91569701 420.17942784 -46.7711218 420.06172129 -47.65246856 419.94044787 C-48.82863508 419.7754834 -48.82863508 419.7754834 -50.02856255 419.60718632 C-51.0414498 419.46649994 -51.0414498 419.46649994 -52.07479942 419.3229714 C-54.084077 418.98589525 -56.03068485 418.51942657 -58 418 C-56.50729642 413.97740914 -54.60323329 410.35874764 -52.48046875 406.6328125 C-52.14002029 406.03499969 -51.79957184 405.43718689 -51.44880676 404.82125854 C-50.7300915 403.56139913 -50.00973881 402.30247257 -49.2878418 401.04443359 C-48.19645165 399.14061523 -47.11255895 397.23267091 -46.02929688 395.32421875 C-44.65538368 392.91071242 -43.26164618 390.51086491 -41.84521484 388.12207031 C-40.76031568 386.28644044 -39.69782117 384.43663864 -38.68994141 382.55761719 C-37.55078125 380.6171875 -37.55078125 380.6171875 -35 378 C-26.94238798 377.39961259 -18.97708053 378.75675679 -11.00024414 379.82006836 C-9.49798475 380.01598697 -7.99565833 380.21139219 -6.49327087 380.40632629 C-2.43473197 380.9343454 1.62285324 381.46938811 5.68031001 382.00565028 C9.94048876 382.56738039 14.2015553 383.1222918 18.46253967 383.6778717 C26.53284288 384.73112884 34.60239943 385.78999178 42.6716724 386.85111004 C54.49676736 388.4059262 66.32279763 389.95359944 78.14903355 391.49971104 C79.01917133 391.61346937 79.88930911 391.7272277 80.7858147 391.84443325 C82.52189818 392.07139299 84.25798424 392.29833289 85.99407297 392.5252524 C91.05528945 393.18700084 96.11622879 393.85081983 101.17693508 394.51645839 C104.33375669 394.93146287 107.49073348 395.34527832 110.64774132 395.75886345 C112.10298453 395.94979257 113.55815902 396.1412464 115.01325607 396.33328629 C121.24559061 397.15564275 127.47892864 397.97266963 133.7268219 398.66871643 C134.85332578 398.79460065 134.85332578 398.79460065 136.00258732 398.92302799 C139.03690361 399.03995797 141.30672452 398.34663774 144 397 C146.22724094 393.65913859 146.22137878 392.23854076 145.61083984 388.36474609 C144.36902296 383.55729671 142.03495767 379.22967412 139.8125 374.8125 C138.7134155 372.57558282 137.61446242 370.33860106 136.515625 368.1015625 C135.93876953 366.93786133 135.36191406 365.77416016 134.76757812 364.57519531 C132.1272925 359.23481649 129.5318783 353.87299657 126.94174194 348.50814819 C126.35085162 347.28459032 125.75939158 346.06130742 125.16738892 344.83828735 C121.01878247 336.26734995 116.97479831 327.65311212 113 319 C105.78153581 303.30977852 98.13389273 287.83028227 90.52810669 272.32528687 C89.83356888 270.90936752 89.83356888 270.90936752 89.125 269.46484375 C88.66978973 268.53693024 88.21457947 267.60901672 87.74557495 266.65298462 C83.17148838 257.32238636 78.68087084 247.95360822 74.22314453 238.56689453 C72.90477035 235.80015079 71.57656479 233.03829007 70.24609375 230.27734375 C65.9219899 221.3026786 61.61002755 212.32338004 57.38671875 203.30078125 C57.07343628 202.63163696 56.76015381 201.96249268 56.43737793 201.27307129 C55.959599 200.25255676 55.959599 200.25255676 55.47216797 199.21142578 C47.42542925 182.02551527 39.16101469 164.95326189 30.81973267 147.90853882 C30.40871307 147.06860382 29.99769348 146.22866882 29.57421875 145.36328125 C29.1710141 144.53937897 28.76780945 143.71547668 28.35238647 142.86660767 C23.94520878 133.85433709 19.61770043 124.80490221 15.30810547 115.74560547 C12.73584245 110.34663759 10.14888193 104.95471445 7.5625 99.5625 C7.06556641 98.52480469 6.56863281 97.48710938 6.05664062 96.41796875 C4.7095277 93.60948708 3.35542357 90.80447752 2 88 C1.4289856 86.80008423 1.4289856 86.80008423 0.84643555 85.57592773 C-1.79660629 79.97100905 -1.79660629 79.97100905 -7 77 C-10.5230496 76.51417105 -10.5230496 76.51417105 -14 78 C-15.50081988 79.69480354 -15.50081988 79.69480354 -16.796875 81.84375 C-17.31564209 82.6594043 -17.83440918 83.47505859 -18.36889648 84.31542969 C-21.26469789 89.08151743 -24.05266286 93.90414452 -26.8125 98.75 C-28.13844437 101.06301044 -29.46511584 103.37558639 -30.79296875 105.6875 C-31.13485229 106.28326843 -31.47673584 106.87903687 -31.82897949 107.49285889 C-35.72110426 114.26858501 -39.66964069 121.01104975 -43.625 127.75 C-43.98461823 128.36290894 -44.34423645 128.97581787 -44.7147522 129.6072998 C-49.81123928 138.29165544 -54.92801355 146.96393692 -60.05615234 155.62963867 C-66.67500143 166.82049091 -73.23973526 178.04311278 -79.81054688 189.26220703 C-81.96140075 192.93441115 -84.1133245 196.60598736 -86.265625 200.27734375 C-86.61530838 200.87383224 -86.96499176 201.47032074 -87.32527161 202.08488464 C-88.73692252 204.49281072 -90.14862358 206.90070739 -91.56039429 209.30856323 C-95.11295508 215.36766041 -98.66512191 221.42698358 -102.21311951 227.48875427 C-109.50625933 239.94897108 -116.81738902 252.3976167 -124.1875 264.8125 C-129.70998131 274.11564326 -135.19245438 283.44076166 -140.63476562 292.79101562 C-144.56827526 299.5488119 -148.51655102 306.29772619 -152.47485352 313.04101562 C-153.93840886 315.53456683 -155.39980259 318.02936327 -156.85913086 320.52539062 C-160.04382782 325.9709953 -163.23780375 331.40964335 -166.48828125 336.81640625 C-167.2613562 338.115177 -167.2613562 338.115177 -168.05004883 339.44018555 C-168.97931955 341.00065312 -169.91721269 342.55603727 -170.8659668 344.10473633 C-173.45601057 348.48190515 -174.62809298 351.9128433 -175 357 C-171.63246872 359.24502085 -169.47252932 359.60749165 -165.5 360.25952148 C-164.84423477 360.36847748 -164.18846954 360.47743347 -163.51283264 360.58969116 C-157.46409897 361.58072163 -151.40040477 362.48189363 -145.33409119 363.35818386 C-141.26327479 363.94641466 -137.20097441 364.56154711 -133.14501953 365.24536133 C-129.21350747 365.90771323 -125.27708671 366.49856216 -121.32739258 367.04164314 C-119.83106985 367.25929781 -118.33806748 367.50132392 -116.84985352 367.76885796 C-108.79270486 369.34748093 -108.79270486 369.34748093 -101.31234741 366.82561111 C-98.08417286 363.79355362 -95.55644744 360.3333533 -93.11976624 356.65164375 C-91.46910421 354.21693414 -89.58333302 351.99593625 -87.6875 349.75 C-86.96691406 348.86570312 -86.24632812 347.98140625 -85.50390625 347.0703125 C-77.69208052 337.49138111 -69.84027163 327.94770048 -61.83251953 318.53173828 C-58.27377231 314.34149432 -54.7925899 310.09248935 -51.328125 305.82421875 C-49.62956057 303.7637119 -47.91573125 301.72842586 -46.171875 299.70703125 C-35.17702397 287.89932639 -35.17702397 287.89932639 -31.07421875 272.890625 C-31.41903267 269.79295241 -32.01433701 266.95698896 -33 264 C-45.18191537 259.0541285 -66.15788294 266.42273307 -78.5 268.5625 C-82.19544046 269.20113185 -85.89118162 269.83771175 -89.5880127 270.46824646 C-91.87490116 270.85844247 -94.16100131 271.2532957 -96.44616699 271.65345764 C-97.48164673 271.83041672 -98.51712646 272.00737579 -99.58398438 272.18969727 C-100.48773804 272.34656509 -101.3914917 272.50343292 -102.32263184 272.66505432 C-105.23932882 273.02994065 -108.06356259 273.05587554 -111 273 C-108.71594412 265.46814792 -105.57368394 258.59769802 -102.0625 251.5625 C-101.53720703 250.47517578 -101.01191406 249.38785156 -100.47070312 248.26757812 C-99.95572266 247.23181641 -99.44074219 246.19605469 -98.91015625 245.12890625 C-98.44746338 244.19119385 -97.98477051 243.25348145 -97.50805664 242.28735352 C-95.42477757 239.12752809 -93.29155358 238.30749713 -89.6544199 237.44155693 C-88.7826961 237.29591364 -87.91097231 237.15027035 -87.01283264 237.00021362 C-86.00800842 236.82918121 -85.0031842 236.6581488 -83.96791077 236.48193359 C-82.87127609 236.30210937 -81.77464142 236.12228516 -80.64477539 235.93701172 C-78.90494888 235.64396652 -78.90494888 235.64396652 -77.12997437 235.34500122 C-73.95050132 234.81116429 -70.77011837 234.28325611 -67.58911443 233.75863028 C-64.9254475 233.31865418 -62.26242172 232.87486268 -59.5993728 232.43116391 C-53.30577461 231.38274304 -47.01103693 230.34137223 -40.71557617 229.30419922 C-34.24860163 228.23862947 -27.7837853 227.16063927 -21.31990248 226.07648647 C-15.75233628 225.14316875 -10.18344258 224.21808461 -4.61345667 223.29931843 C-1.29512211 222.75185721 2.0224153 222.2004319 5.33906364 221.64278793 C9.05120254 221.01986138 12.76532989 220.41044443 16.48022461 219.80419922 C17.5586412 219.62032654 18.6370578 219.43645386 19.74815369 219.24700928 C38.28568365 216.2709217 38.28568365 216.2709217 45.625 219.6875 C50.07775462 224.02307687 51.66939698 227.89233157 52.3125 233.9375 C51.99528239 248.7515622 42.21649894 260.72112585 33.5625 271.875 C32.15614014 273.70434263 30.74989354 275.53377233 29.34375 277.36328125 C28.62832031 278.29092285 27.91289062 279.21856445 27.17578125 280.17431641 C23.62108111 284.79079974 20.09211401 289.42682605 16.5625 294.0625 C15.88517822 294.95114746 15.20785645 295.83979492 14.51000977 296.75537109 C10.46660511 302.0629333 6.45061018 307.38924067 2.45703125 312.734375 C-0.93791069 317.26096425 -4.37993192 321.75193217 -7.8125 326.25 C-12.56717999 332.4811795 -17.30755305 338.72180726 -22 345 C-27.3837636 352.20313003 -32.8335834 359.35499777 -38.2890625 366.50390625 C-42.39699557 371.88916208 -46.47733596 377.29274198 -50.53125 382.71875 C-54.69710614 388.27322485 -58.92546108 393.78072321 -63.13671875 399.30078125 C-66.60882625 403.85425806 -70.07270754 408.41270086 -73.5 413 C-78.33288223 419.46862698 -83.23912756 425.88108676 -88.13671875 432.30078125 C-91.60882625 436.85425806 -95.07270754 441.41270086 -98.5 446 C-103.33288223 452.46862698 -108.23912756 458.88108676 -113.13671875 465.30078125 C-116.60882625 469.85425806 -120.07270754 474.41270086 -123.5 479 C-128.32462364 485.45757318 -133.21842232 491.86230524 -138.11474609 498.265625 C-141.04664147 502.10364174 -143.97536476 505.94065912 -146.8203125 509.84375 C-155.59923664 521.86641221 -155.59923664 521.86641221 -162 524 C-174.77400197 525.28659013 -183.49139649 522.04253432 -193.33691406 514.09814453 C-196.28144956 511.65297848 -199.18701113 509.1656439 -202.07861328 506.65820312 C-204.51364337 504.55671337 -207.00038715 502.52403963 -209.5 500.5 C-214.92664838 496.0660312 -220.33406281 491.60886462 -225.7421875 487.15234375 C-229.65590572 483.92805276 -233.57325968 480.70843416 -237.5 477.5 C-242.92664838 473.0660312 -248.33406281 468.60886462 -253.7421875 464.15234375 C-257.65590572 460.92805276 -261.57325968 457.70843416 -265.5 454.5 C-270.1766981 450.67879546 -274.83925148 446.84062334 -279.5 443 C-285.9890275 437.65312663 -292.48796209 432.31883842 -299 427 C-306.26162381 421.06892217 -313.50493306 415.11611367 -320.74072266 409.15356445 C-324.65491932 405.92885454 -328.57276747 402.70883634 -332.5 399.5 C-337.1766981 395.67879546 -341.83925148 391.84062334 -346.5 388 C-352.9890275 382.65312663 -359.48796209 377.31883842 -366 372 C-373.26162381 366.06892217 -380.50493306 360.11611367 -387.74072266 354.15356445 C-391.65491932 350.92885454 -395.57276747 347.70883634 -399.5 344.5 C-404.1766982 340.67879538 -408.8392375 336.84060651 -413.5 333 C-424.52672092 323.8283787 -424.52672092 323.8283787 -435.734375 314.8828125 C-438.09005391 312.9251621 -438.8295178 312.05957924 -439.30859375 309.08203125 C-439.55282865 304.78201672 -439.33103388 301.67486771 -436.75 298.125 C-429.02707849 290.65208683 -414.20037222 290.74307715 -403.90209961 289.08007812 C-402.20603458 288.80235365 -400.51004255 288.52418304 -398.81411743 288.24560547 C-394.22235957 287.49263278 -389.62961286 286.74585964 -385.03666377 286.00019264 C-380.14937327 285.20560019 -375.26304357 284.40514105 -370.37660217 283.60534668 C-361.05807584 282.08101452 -351.7387266 280.56177647 -342.41906124 279.04442549 C-331.06318541 277.19532162 -319.7083363 275.33994531 -308.35351562 273.484375 C-296.30409207 271.51542332 -284.25453004 269.5473393 -272.20419312 267.58398438 C-254.72293076 264.73531506 -237.24263243 261.88158168 -219.76884305 258.98737431 C-217.33742872 258.58475939 -214.90593405 258.18263359 -212.47440815 257.78069305 C-210.91584553 257.52302758 -209.35728324 257.26536008 -207.79872131 257.00769043 C-207.04621135 256.88329448 -206.29370139 256.75889853 -205.51838809 256.63073301 C-201.17095923 255.91167019 -196.82415189 255.18898857 -192.47779703 254.46346378 C-189.2546586 253.92640424 -186.03070062 253.39430383 -182.80688477 252.86132812 C-181.09991141 252.5743103 -181.09991141 252.5743103 -179.35845375 252.28149414 C-178.31993956 252.11065308 -177.28142536 251.93981201 -176.21144104 251.76379395 C-175.31864724 251.6151313 -174.42585344 251.46646866 -173.50600529 251.31330109 C-170.9763177 250.99703924 -168.54653064 250.9440901 -166 251 C-165.59624146 249.92637207 -165.59624146 249.92637207 -165.18432617 248.83105469 C-163.98801623 245.97135357 -162.60148383 243.38606764 -161.05078125 240.703125 C-160.16132812 239.16108398 -160.16132812 239.16108398 -159.25390625 237.58789062 C-158.61324219 236.48638672 -157.97257812 235.38488281 -157.3125 234.25 C-156.63796145 233.08532085 -155.96348331 231.92060671 -155.2890625 230.75585938 C-150.16088983 221.91778067 -144.91264875 213.15413749 -139.63256836 204.40600586 C-134.47206603 195.83697797 -129.4616284 187.18686006 -124.47998047 178.51293945 C-120.05693143 170.81618759 -115.57221256 163.15904217 -111.04541016 155.52294922 C-106.5911141 148.00758661 -102.16578299 140.4755248 -97.75 132.9375 C-97.21369965 132.02210953 -97.21369965 132.02210953 -96.66656494 131.08822632 C-94.84063579 127.97154708 -93.01496894 124.85471432 -91.18945312 121.73779297 C-89.03859925 118.06558885 -86.8866755 114.39401264 -84.734375 110.72265625 C-84.38469162 110.12616776 -84.03500824 109.52967926 -83.67472839 108.91511536 C-82.26307748 106.50718928 -80.85137642 104.09929261 -79.43960571 101.69143677 C-75.88706566 95.63237496 -72.33492207 89.57308571 -68.78694153 83.51135254 C-60.74429551 69.77059695 -52.68316415 56.04145429 -44.54467773 42.35717773 C-41.68682596 37.54989479 -38.83801979 32.73985341 -36.05859375 27.88671875 C-17.21115017 -4.98274765 -17.21115017 -4.98274765 0 0 Z M-196.54646301 286.87112427 C-197.21449548 286.97699793 -197.88252795 287.08287159 -198.57080382 287.19195354 C-200.81506255 287.54955432 -203.05748375 287.91758288 -205.30004883 288.28564453 C-206.9064077 288.54396072 -208.51286056 288.80169303 -210.11940002 289.05888367 C-214.48846765 289.7605777 -218.85591118 290.4719159 -223.22296357 291.18603373 C-225.95136381 291.63188637 -228.6800546 292.07591535 -231.40884972 292.51934433 C-240.92892302 294.06670422 -250.44754565 295.62269816 -259.96508789 297.18554688 C-268.83571745 298.64189983 -277.7094598 300.07806162 -286.58484632 301.50510895 C-294.20420853 302.73122689 -301.82102686 303.97236959 -309.43607539 305.2249974 C-313.98433198 305.97284195 -318.53340173 306.71438958 -323.0851841 307.44049454 C-327.36854315 308.12424343 -331.64843231 308.82662982 -335.92639732 309.54332924 C-337.49500614 309.80285526 -339.06473171 310.05573457 -340.63557434 310.30137825 C-342.78469245 310.63851764 -344.92844456 310.99968893 -347.07258606 311.36697388 C-348.87253383 311.66066958 -348.87253383 311.66066958 -350.70884418 311.96029854 C-354.89209595 313.28181998 -356.87749304 314.93467 -360 318 C-360.95547581 320.67108098 -360.95547581 320.67108098 -361 323 C-355.62982999 327.92113161 -350.0670307 332.16796639 -344 336.1875 C-337.87477451 340.30750004 -331.86643664 344.51902511 -326 349 C-320.28738853 353.35708873 -314.4526861 357.47738202 -308.5 361.5 C-301.799026 366.02843208 -295.27896458 370.72669934 -288.84326172 375.62329102 C-283.71407181 379.50890519 -278.45926007 383.17192353 -273.13769531 386.7878418 C-267.27326797 390.78275128 -261.52334469 394.92466447 -255.78173828 399.09350586 C-250.71542529 402.76916209 -245.62088767 406.40081546 -240.5 410 C-234.63502325 414.1237799 -228.80593974 418.29352197 -223 422.5 C-200.6091965 441.46908596 -200.6091965 441.46908596 -174.31640625 450.48046875 C-166.6721602 448.89490001 -161.89517833 440.53048201 -157.43164062 434.69458008 C-153.33731111 429.34646775 -148.97755319 424.27103191 -144.50317383 419.23828125 C-143.98907959 418.655625 -143.47498535 418.07296875 -142.9453125 417.47265625 C-142.27266357 416.71867554 -142.27266357 416.71867554 -141.58642578 415.94946289 C-140.11071423 414.13605003 -138.75481502 412.28328261 -137.40084839 410.37815857 C-136.9511009 409.74606193 -136.50135342 409.11396528 -136.03797722 408.4627142 C-135.5241785 407.73867067 -135.5241785 407.73867067 -135 407 C-136.05520844 406.86076614 -137.11041687 406.72153229 -138.19760132 406.57807922 C-148.17460195 405.25922736 -158.14889916 403.92138874 -168.12090111 402.56524372 C-173.24687334 401.86874886 -178.3735467 401.17881622 -183.50244141 400.50415039 C-188.45836408 399.851987 -193.411627 399.18223471 -198.36357498 398.5005703 C-200.24682093 398.24441727 -202.13092063 397.99445709 -204.01585007 397.75100136 C-226.35501019 394.85634809 -226.35501019 394.85634809 -232.50668335 388.42475891 C-235.6420698 384.25498157 -235.47647454 379.28346111 -235.53125 374.2578125 C-234.09875067 365.47322101 -228.6739243 357.68948507 -224.25 350.125 C-223.59531738 348.99803711 -222.94063477 347.87107422 -222.26611328 346.70996094 C-215.56521805 335.18800521 -208.75753304 323.72872215 -201.94433594 312.27294922 C-198.78705393 306.9582176 -195.643338 301.6354867 -192.5 296.3125 C-191.9416748 295.36729492 -191.38334961 294.42208984 -190.80810547 293.44824219 C-189.53857156 291.29892574 -188.26919455 289.14951685 -187 287 C-190.66665714 285.77778095 -192.73381617 286.2556258 -196.54646301 286.87112427 Z " fill="#019EEB" transform="translate(439,0)"/>
<path d="M0 0 C4.45275462 4.33557687 6.04439698 8.20483157 6.6875 14.25 C6.37028239 29.0640622 -3.40850106 41.03362585 -12.0625 52.1875 C-13.46885986 54.01684263 -14.87510646 55.84627233 -16.28125 57.67578125 C-16.99667969 58.60342285 -17.71210938 59.53106445 -18.44921875 60.48681641 C-22.00391889 65.10329974 -25.53288599 69.73932605 -29.0625 74.375 C-30.07848267 75.70797119 -30.07848267 75.70797119 -31.11499023 77.06787109 C-35.15839489 82.3754333 -39.17438982 87.70174067 -43.16796875 93.046875 C-46.56291069 97.57346425 -50.00493192 102.06443217 -53.4375 106.5625 C-58.19217999 112.7936795 -62.93255305 119.03430726 -67.625 125.3125 C-73.0087636 132.51563003 -78.4585834 139.66749777 -83.9140625 146.81640625 C-88.02199557 152.20166208 -92.10233596 157.60524198 -96.15625 163.03125 C-100.32210614 168.58572485 -104.55046108 174.09322321 -108.76171875 179.61328125 C-112.23382625 184.16675806 -115.69770754 188.72520086 -119.125 193.3125 C-123.95788223 199.78112698 -128.86412756 206.19358676 -133.76171875 212.61328125 C-137.23382625 217.16675806 -140.69770754 221.72520086 -144.125 226.3125 C-148.95788223 232.78112698 -153.86412756 239.19358676 -158.76171875 245.61328125 C-162.23382625 250.16675806 -165.69770754 254.72520086 -169.125 259.3125 C-173.94962364 265.77007318 -178.84342232 272.17480524 -183.73974609 278.578125 C-186.67164147 282.41614174 -189.60036476 286.25315912 -192.4453125 290.15625 C-201.22423664 302.17891221 -201.22423664 302.17891221 -207.625 304.3125 C-220.39900197 305.59909013 -229.11639649 302.35503432 -238.96191406 294.41064453 C-241.90644956 291.96547848 -244.81201113 289.4781439 -247.70361328 286.97070312 C-250.13864337 284.86921337 -252.62538715 282.83653963 -255.125 280.8125 C-260.55164838 276.3785312 -265.95906281 271.92136462 -271.3671875 267.46484375 C-275.28090572 264.24055276 -279.19825968 261.02093416 -283.125 257.8125 C-288.55164838 253.3785312 -293.95906281 248.92136462 -299.3671875 244.46484375 C-303.28090572 241.24055276 -307.19825968 238.02093416 -311.125 234.8125 C-315.8016981 230.99129546 -320.46425148 227.15312334 -325.125 223.3125 C-331.6140275 217.96562663 -338.11296209 212.63133842 -344.625 207.3125 C-351.88662381 201.38142217 -359.12993306 195.42861367 -366.36572266 189.46606445 C-370.27991932 186.24135454 -374.19776747 183.02133634 -378.125 179.8125 C-382.8016981 175.99129546 -387.46425148 172.15312334 -392.125 168.3125 C-398.6140275 162.96562663 -405.11296209 157.63133842 -411.625 152.3125 C-418.88662381 146.38142217 -426.12993306 140.42861367 -433.36572266 134.46606445 C-437.27991932 131.24135454 -441.19776747 128.02133634 -445.125 124.8125 C-449.8016982 120.99129538 -454.4642375 117.15310651 -459.125 113.3125 C-470.15172092 104.1408787 -470.15172092 104.1408787 -481.359375 95.1953125 C-483.71505391 93.2376621 -484.4545178 92.37207924 -484.93359375 89.39453125 C-485.17782865 85.09451672 -484.95603388 81.98736771 -482.375 78.4375 C-474.65207849 70.96458683 -459.82537222 71.05557715 -449.52709961 69.39257812 C-447.83103458 69.11485365 -446.13504255 68.83668304 -444.43911743 68.55810547 C-439.84735957 67.80513278 -435.25461286 67.05835964 -430.66166377 66.31269264 C-425.77437327 65.51810019 -420.88804357 64.71764105 -416.00160217 63.91784668 C-406.68307584 62.39351452 -397.3637266 60.87427647 -388.04406124 59.35692549 C-376.68818541 57.50782162 -365.3333363 55.65244531 -353.97851562 53.796875 C-341.92909207 51.82792332 -329.87953004 49.8598393 -317.82919312 47.89648438 C-300.34793076 45.04781506 -282.86763243 42.19408168 -265.39384305 39.29987431 C-262.96242872 38.89725939 -260.53093405 38.49513359 -258.09940815 38.09319305 C-256.54084553 37.83552758 -254.98228324 37.57786008 -253.42372131 37.32019043 C-252.67121135 37.19579448 -251.91870139 37.07139853 -251.14338809 36.94323301 C-246.79595923 36.22417019 -242.44915189 35.50148857 -238.10279703 34.77596378 C-234.8796586 34.23890424 -231.65570062 33.70680383 -228.43188477 33.17382812 C-226.72491141 32.8868103 -226.72491141 32.8868103 -224.98345375 32.59399414 C-223.94493956 32.42315308 -222.90642536 32.25231201 -221.83644104 32.07629395 C-220.94364724 31.9276313 -220.05085344 31.77896866 -219.13100529 31.62580109 C-216.6013177 31.30953924 -214.17153064 31.2565901 -211.625 31.3125 C-211.99794189 31.96371826 -212.37088379 32.61493652 -212.75512695 33.28588867 C-215.5346625 38.24391979 -218.00075835 43.11773251 -220.04296875 48.42578125 C-223.1418067 55.78951394 -226.9076678 64.15659828 -234.52088928 67.63597107 C-237.45257427 68.30964722 -240.33896831 68.79498837 -243.32909775 69.12077713 C-245.51833016 69.36034886 -247.69189877 69.66282711 -249.87136841 69.97885132 C-253.37103401 70.48281875 -256.87313675 70.96249743 -260.37747192 71.43283081 C-267.56017038 72.42044105 -274.71280143 73.58575892 -281.86694336 74.76000977 C-282.54722945 74.8715407 -283.22751555 74.98307163 -283.92841637 75.09798229 C-287.47977395 75.68057519 -291.03084646 76.26488351 -294.5817852 76.85002327 C-301.21372893 77.94207131 -307.84802802 79.01965653 -314.48214352 80.09841621 C-316.74160996 80.46602084 -319.00097557 80.83423941 -321.26031399 81.20263004 C-328.9544863 82.45679012 -336.64962632 83.70455511 -344.34667969 84.94091797 C-351.16524049 86.03621051 -357.98193461 87.14238141 -364.79663622 88.26144302 C-368.37487091 88.84861789 -371.95379433 89.43034016 -375.53507614 89.99866104 C-379.49417824 90.62706203 -383.44895147 91.27949649 -387.40380859 91.93408203 C-388.57449387 92.11599091 -389.74517914 92.29789978 -390.95133972 92.48532104 C-398.59893929 93.68690398 -398.59893929 93.68690398 -404.625 98.3125 C-405.50443404 100.94710948 -405.50443404 100.94710948 -405.625 103.3125 C-399.12541245 108.74213088 -392.36397849 113.68361109 -385.42993164 118.53613281 C-380.12648836 122.247677 -374.86475736 126.01163091 -369.625 129.8125 C-363.12254647 134.52481855 -356.58227667 139.17885572 -350.01293945 143.79736328 C-344.91595671 147.38645681 -339.85818566 151.02673156 -334.8125 154.6875 C-328.46081627 159.29385151 -322.06183381 163.82595855 -315.625 168.3125 C-308.43290628 173.32546562 -301.29894216 178.41040473 -294.203125 183.55859375 C-288.50772133 187.68700805 -282.76970268 191.7513006 -277.0144043 195.7956543 C-272.64835096 198.86906971 -268.31202405 201.97993334 -263.9934082 205.11962891 C-256.86148736 210.3026703 -249.6868425 215.41975689 -242.4375 220.4375 C-241.65971191 220.98204834 -240.88192383 221.52659668 -240.08056641 222.08764648 C-233.73918306 226.445368 -227.75166626 230.14970256 -219.8046875 229.76171875 C-212.64514882 228.28618659 -208.28746282 220.50522946 -204.10302734 215.05566406 C-198.58403834 207.87554739 -192.60825964 201.10597062 -186.625 194.3125 C-177.41309677 183.81350451 -168.27991967 173.27858607 -159.625 162.3125 C-143.04792384 141.48840433 -143.04792384 141.48840433 -134.64331055 131.63378906 C-130.39497533 126.65221218 -126.25913965 121.61391272 -122.25 116.4375 C-117.79448329 110.69222845 -113.11356595 105.18154559 -108.32519531 99.71191406 C-104.41279365 95.23959803 -100.61695519 90.68930246 -96.8828125 86.06640625 C-95.21257203 84.02917522 -93.52507768 82.02135349 -91.8046875 80.02734375 C-80.80443864 68.21674008 -80.80443864 68.21674008 -76.69921875 53.203125 C-77.04403267 50.10545241 -77.63933701 47.26948896 -78.625 44.3125 C-90.80691537 39.3666285 -111.78288294 46.73523307 -124.125 48.875 C-127.82044046 49.51363185 -131.51618162 50.15021175 -135.2130127 50.78074646 C-137.49990116 51.17094247 -139.78600131 51.5657957 -142.07116699 51.96595764 C-143.10664673 52.14291672 -144.14212646 52.31987579 -145.20898438 52.50219727 C-146.11273804 52.65906509 -147.0164917 52.81593292 -147.94763184 52.97755432 C-150.86432882 53.34244065 -153.68856259 53.36837554 -156.625 53.3125 C-154.34094412 45.78064792 -151.19868394 38.91019802 -147.6875 31.875 C-147.16220703 30.78767578 -146.63691406 29.70035156 -146.09570312 28.58007812 C-145.58072266 27.54431641 -145.06574219 26.50855469 -144.53515625 25.44140625 C-143.84111694 24.03483765 -143.84111694 24.03483765 -143.13305664 22.59985352 C-141.04977757 19.44002809 -138.91655358 18.61999713 -135.2794199 17.75405693 C-134.4076961 17.60841364 -133.53597231 17.46277035 -132.63783264 17.31271362 C-131.63300842 17.14168121 -130.6281842 16.9706488 -129.59291077 16.79443359 C-127.94795876 16.52469727 -127.94795876 16.52469727 -126.26977539 16.24951172 C-125.10989105 16.05414825 -123.95000671 15.85878479 -122.75497437 15.65750122 C-119.57550132 15.12366429 -116.39511837 14.59575611 -113.21411443 14.07113028 C-110.5504475 13.63115418 -107.88742172 13.18736268 -105.2243728 12.74366391 C-98.93077461 11.69524304 -92.63603693 10.65387223 -86.34057617 9.61669922 C-79.87360163 8.55112947 -73.4087853 7.47313927 -66.94490248 6.38898647 C-61.37733628 5.45566875 -55.80844258 4.53058461 -50.23845667 3.61181843 C-46.92012211 3.06435721 -43.6025847 2.5129319 -40.28593636 1.95528793 C-36.57379746 1.33236138 -32.85967011 0.72294443 -29.14477539 0.11669922 C-28.0663588 -0.06717346 -26.9879422 -0.25104614 -25.87684631 -0.44049072 C-7.33931635 -3.4165783 -7.33931635 -3.4165783 0 0 Z " fill="#FEB500" transform="translate(484.625,219.6875)"/>
</svg>
