<svg xmlns="http://www.w3.org/2000/svg" width="846" height="295" viewBox="0 0 846 295">
<g>
<path d="M 112.34 258.56 C103.11,260.33 83.59,260.30 75.50,258.52 C67.48,256.74 57.31,252.96 51.63,249.63 L 47.00 246.92 L 47.00 213.46 C47.00,195.06 47.34,180.00 47.75,180.01 C48.16,180.02 49.72,182.65 51.22,185.87 C56.46,197.14 69.02,208.12 80.49,211.45 C87.18,213.40 101.00,213.43 107.31,211.52 C136.97,202.52 149.79,167.16 132.92,140.87 C126.95,131.57 115.81,123.84 104.25,120.98 L 100.00 119.92 L 100.00 73.71 L 106.93 74.29 C135.91,76.72 166.24,99.06 178.92,127.32 C183.16,136.78 184.83,142.88 186.62,155.50 C188.35,167.72 187.60,177.97 183.98,191.59 C175.23,224.47 145.56,252.21 112.34,258.56 ZM 384.07 258.19 C381.78,258.95 370.51,259.51 352.75,259.75 L 325.00 260.12 L 325.00 166.85 L 351.25 167.18 L 377.50 167.50 L 383.00 170.50 C390.62,174.66 394.00,181.17 394.00,191.72 C394.00,200.88 391.65,206.11 386.30,208.85 L 382.62 210.74 L 387.06 212.72 C396.26,216.83 400.26,223.39 400.33,234.50 C400.37,239.79 399.86,242.51 398.23,245.64 C395.62,250.65 388.94,256.57 384.07,258.19 ZM 312.75 260.37 C309.66,261.20 298.06,261.00 294.99,260.07 C287.38,257.75 282.47,253.20 278.89,245.15 C273.91,233.94 272.55,231.70 269.61,229.91 C267.90,228.86 264.81,228.01 262.75,228.00 L 259.00 228.00 L 259.00 260.06 L 246.75 259.78 L 234.50 259.50 L 234.24 213.16 L 233.98 166.82 L 259.24 167.24 C288.85,167.73 292.54,168.49 299.53,175.47 C304.71,180.66 307.00,187.25 307.00,196.99 C307.00,206.75 302.16,215.45 294.29,219.86 C292.85,220.66 292.90,221.05 294.72,223.63 C295.83,225.21 297.91,228.82 299.34,231.65 C302.66,238.24 306.14,241.00 311.13,241.00 L 315.00 241.00 L 315.00 250.38 C315.00,259.27 314.88,259.80 312.75,260.37 ZM 0.00 217.12 L 0.00 26.50 L 47.00 25.93 L 47.00 55.24 C47.00,58.27 47.01,60.99 47.02,63.44 C47.06,78.53 47.08,83.20 44.82,86.10 C43.45,87.88 41.22,88.99 37.65,91.41 C30.69,96.13 21.58,105.88 15.49,115.12 C11.21,121.61 9.37,125.21 5.39,134.88 C4.40,137.28 3.41,138.73 3.19,138.08 C2.90,137.20 2.47,137.19 1.40,138.08 C0.22,139.06 0.00,151.52 0.00,217.12 ZM 474.00 241.00 L 474.00 260.00 L 412.00 260.00 L 412.00 167.00 L 437.00 167.00 L 437.00 241.00 ZM 259.00 185.70 L 259.00 210.26 L 266.85 209.80 C279.94,209.04 285.77,203.45 282.78,194.50 C280.84,188.73 277.89,187.13 267.75,186.36 ZM 349.67 240.33 C350.70,241.37 364.56,241.12 367.48,240.01 C370.85,238.73 373.29,233.07 372.44,228.51 C371.36,222.77 369.03,221.55 358.40,221.15 L 349.00 220.81 L 349.00 230.24 C349.00,235.42 349.30,239.97 349.67,240.33 ZM 349.75 203.43 C351.13,204.82 363.53,203.54 366.33,201.70 C368.63,200.20 369.00,199.27 369.00,195.00 C369.00,188.64 367.16,187.35 356.75,186.42 L 349.00 185.72 L 349.00 194.20 C349.00,198.85 349.34,203.01 349.75,203.43 Z" fill="rgb(35,49,123)"/>
<path d="M 0.00 217.12 C0.00,151.52 0.22,139.06 1.40,138.08 C2.47,137.19 2.90,137.20 3.19,138.08 C3.41,138.73 4.40,137.28 5.39,134.88 C9.23,125.55 11.08,121.88 15.04,115.80 C10.08,123.62 6.07,132.25 3.50,141.00 C2.77,143.48 2.14,144.71 2.09,143.75 C2.04,142.79 1.56,142.00 1.03,142.00 C0.42,142.00 0.05,169.89 0.02,218.50 L 0.00 250.12 L 0.00 217.12 ZM 552.00 211.00 C552.00,211.55 551.55,212.00 551.00,212.00 C550.45,212.00 550.00,211.55 550.00,211.00 C550.00,210.45 550.45,210.00 551.00,210.00 C551.55,210.00 552.00,210.45 552.00,211.00 ZM 42.72 88.05 C43.58,87.42 44.27,86.82 44.82,86.10 C45.84,84.80 46.39,83.13 46.69,80.31 C46.40,83.38 45.84,85.04 44.79,86.29 C44.24,86.94 43.56,87.48 42.72,88.05 Z" fill="rgb(143,134,169)"/>
<path d="M 42.72 88.05 C43.56,87.48 44.24,86.94 44.79,86.29 C45.84,85.04 46.40,83.38 46.69,80.31 C47.06,76.88 47.04,71.73 47.02,63.44 C47.01,62.31 47.01,61.12 47.01,59.87 C47.05,74.04 47.27,85.00 47.54,85.00 C47.84,85.00 49.97,84.03 52.29,82.85 C58.29,79.79 72.19,75.23 77.76,74.50 C80.37,74.15 83.74,73.64 85.25,73.36 L 88.00 72.84 L 88.00 119.92 L 83.75 120.96 C75.44,122.98 65.33,128.87 59.66,135.00 C50.91,144.45 47.03,154.59 47.01,168.06 C47.00,175.44 49.25,182.84 53.13,189.44 C52.42,188.26 51.78,187.07 51.22,185.87 C49.72,182.65 48.16,180.02 47.75,180.01 C47.34,180.00 47.00,195.06 47.00,213.46 L 47.00 246.92 L 51.63 249.63 C53.35,250.64 55.49,251.69 57.85,252.72 C55.85,251.87 54.16,251.09 53.15,250.51 C50.75,249.13 48.39,248.00 47.90,248.00 C47.40,248.00 47.00,253.40 47.00,260.00 L 47.00 272.00 L 0.00 272.00 L 0.00 250.12 L 0.02 218.50 C0.04,188.33 0.19,166.15 0.44,153.66 C0.57,153.89 0.75,153.47 1.00,152.50 C2.13,148.06 2.14,142.09 1.03,142.00 C1.03,142.00 1.03,142.00 1.03,142.00 C1.56,142.00 2.04,142.79 2.09,143.75 C2.14,144.71 2.77,143.48 3.50,141.00 C6.07,132.25 10.08,123.62 15.04,115.80 C15.19,115.58 15.34,115.35 15.49,115.12 C21.58,105.88 30.69,96.13 37.65,91.41 C39.79,89.96 41.44,88.98 42.72,88.05 ZM 548.54 258.48 C544.08,259.62 537.00,260.00 520.35,260.00 C508.12,260.00 497.89,259.64 497.62,259.19 C497.35,258.75 497.15,237.78 497.19,212.60 L 497.25 166.82 L 520.88 167.20 C540.71,167.51 545.14,167.86 548.50,169.34 C554.46,171.96 558.84,176.73 560.53,182.40 C563.53,192.52 561.88,201.35 555.87,207.37 C553.71,209.52 552.07,211.39 552.23,211.52 C552.38,211.65 554.30,212.66 556.50,213.77 C561.46,216.27 563.33,218.31 565.92,224.02 C569.00,230.81 568.73,239.38 565.21,246.12 C561.83,252.59 556.70,256.39 548.54,258.48 ZM 688.00 229.44 L 688.00 260.00 L 671.00 260.00 L 671.00 166.92 L 680.12 167.21 L 689.24 167.50 L 706.63 198.00 C716.20,214.77 724.47,228.65 725.01,228.83 C725.65,229.05 726.00,218.07 726.00,198.08 L 726.00 167.00 L 742.00 167.00 L 742.00 260.00 L 724.50 259.94 L 719.58 251.22 C716.87,246.42 711.87,237.77 708.47,232.00 C705.07,226.23 699.44,216.64 695.97,210.71 C692.50,204.77 689.29,199.68 688.83,199.40 C688.37,199.11 688.00,212.63 688.00,229.44 ZM 843.79 254.38 L 843.50 260.50 L 837.50 260.73 C824.80,261.21 819.42,256.88 810.77,239.21 C801.45,220.17 796.26,217.60 787.76,227.81 L 783.02 233.50 L 783.01 246.75 L 783.00 260.00 L 766.00 260.00 L 766.00 167.00 L 782.96 167.00 L 783.50 207.14 L 791.00 198.42 C795.12,193.63 802.94,184.60 808.37,178.35 L 818.24 167.00 L 828.62 167.00 C834.33,167.00 839.00,167.20 839.00,167.45 C839.00,167.70 831.36,176.81 822.02,187.70 C812.68,198.59 805.03,207.73 805.02,208.00 C805.01,208.28 807.06,209.60 809.58,210.93 C815.96,214.32 820.33,219.84 826.04,231.77 C831.81,243.82 834.35,246.71 839.98,247.61 L 844.09 248.27 ZM 593.92 250.75 L 590.75 260.00 L 582.37 260.00 C576.54,260.00 574.00,259.64 574.00,258.80 C574.00,258.15 577.79,247.46 582.43,235.05 C587.07,222.65 593.83,204.40 597.46,194.50 C601.09,184.60 604.87,174.48 605.85,172.00 L 607.65 167.50 L 625.21 167.50 L 628.19 175.50 C629.83,179.90 632.21,186.43 633.49,190.00 C634.76,193.57 638.81,204.60 642.48,214.50 C646.14,224.40 651.09,237.90 653.47,244.50 C655.86,251.10 658.12,257.29 658.51,258.25 C659.15,259.84 658.40,260.00 650.36,260.00 L 641.50 259.99 L 637.49 248.25 L 633.47 236.50 L 616.37 236.23 L 599.26 235.95 L 598.18 238.73 C597.58,240.25 595.66,245.66 593.92,250.75 ZM 514.75 246.44 C515.16,246.86 520.67,247.03 527.00,246.81 C540.57,246.33 545.44,244.55 548.31,239.00 C551.01,233.75 550.14,226.67 546.30,222.84 C542.50,219.04 538.08,218.05 524.75,218.02 L 514.00 218.00 L 514.00 231.83 C514.00,239.44 514.34,246.01 514.75,246.44 ZM 514.00 181.00 L 514.00 206.00 L 524.43 206.00 C538.52,206.00 542.14,204.48 544.07,197.76 C545.02,194.45 544.45,188.88 542.84,185.76 C540.99,182.18 536.59,181.00 525.05,181.00 ZM 604.54 220.75 C603.87,223.00 603.88,223.00 615.93,223.00 C625.67,223.00 628.00,222.73 628.00,221.59 C628.00,220.81 626.69,216.64 625.08,212.34 C623.48,208.03 620.90,201.01 619.36,196.75 C617.81,192.49 616.30,189.00 615.99,189.00 C615.53,189.00 606.83,213.13 604.54,220.75 ZM 552.00 211.00 C552.00,210.45 551.55,210.00 551.00,210.00 C550.45,210.00 550.00,210.45 550.00,211.00 C550.00,211.55 550.45,212.00 551.00,212.00 C551.55,212.00 552.00,211.55 552.00,211.00 ZM 94.55 259.87 C100.97,259.84 107.40,259.44 111.79,258.66 C111.74,258.67 111.69,258.68 111.65,258.69 C106.75,259.62 101.73,259.98 94.55,259.87 ZM 150.47 240.88 C166.50,228.41 178.85,210.89 183.98,191.59 C178.82,210.98 166.54,228.45 150.47,240.88 ZM 90.81 212.86 C96.89,213.10 103.55,212.66 107.31,211.52 C103.48,212.68 96.90,213.12 90.81,212.86 ZM 69.42 256.92 C71.30,257.48 73.15,257.98 74.91,258.38 C73.17,258.02 71.43,257.54 69.42,256.92 ZM 77.36 210.37 C78.28,210.73 79.22,211.06 80.17,211.36 C79.24,211.08 78.30,210.75 77.36,210.37 Z" fill="rgb(231,30,40)"/>
<path d="M 0.00 283.50 L 0.00 272.00 L 23.50 272.00 L 47.00 272.00 L 47.00 260.00 C47.00,253.40 47.40,248.00 47.90,248.00 C48.39,248.00 50.75,249.13 53.15,250.51 C55.54,251.88 61.78,254.42 67.00,256.14 C75.20,258.84 78.35,259.34 90.00,259.75 C99.73,260.10 105.77,259.80 111.65,258.69 C145.48,252.29 175.15,224.77 183.98,191.59 C187.60,177.97 188.35,167.72 186.62,155.50 C184.83,142.88 183.16,136.78 178.92,127.32 C166.24,99.06 135.91,76.72 106.93,74.29 L 100.00 73.71 L 100.00 96.82 L 100.00 119.92 L 104.25 120.98 C115.81,123.84 126.95,131.57 132.92,140.87 C149.79,167.16 136.97,202.52 107.31,211.52 C101.08,213.41 86.86,213.39 80.58,211.49 C61.57,205.72 46.98,186.85 47.01,168.06 C47.03,154.59 50.91,144.45 59.66,135.00 C65.33,128.87 75.44,122.98 83.75,120.96 L 88.00 119.92 L 88.00 96.38 L 88.00 72.84 L 85.25 73.36 C83.74,73.64 80.37,74.15 77.76,74.50 C72.19,75.23 58.29,79.79 52.29,82.85 C49.97,84.03 47.84,85.00 47.54,85.00 C47.24,85.00 47.00,71.71 47.00,55.46 L 47.00 25.93 L 23.50 26.21 L -0.00 26.50 L -0.00 13.25 L 0.00 0.00 L 423.00 0.00 L 846.00 0.00 L 846.00 147.50 L 846.00 295.00 L 423.00 295.00 L 0.00 295.00 L 0.00 283.50 ZM 312.75 260.37 C314.88,259.80 315.00,259.27 315.00,250.38 L 315.00 241.00 L 311.13 241.00 C306.14,241.00 302.66,238.24 299.34,231.65 C297.91,228.82 295.83,225.21 294.72,223.63 C292.90,221.05 292.85,220.66 294.29,219.86 C302.16,215.45 307.00,206.75 307.00,196.99 C307.00,187.25 304.71,180.66 299.53,175.47 C292.54,168.49 288.85,167.73 259.24,167.24 L 233.98 166.82 L 234.24 213.16 L 234.50 259.50 L 246.75 259.78 L 259.00 260.06 L 259.00 244.03 L 259.00 228.00 L 262.75 228.00 C264.81,228.01 267.90,228.86 269.61,229.91 C272.55,231.70 273.91,233.94 278.89,245.15 C282.47,253.20 287.38,257.75 294.99,260.07 C298.06,261.00 309.66,261.20 312.75,260.37 ZM 843.79 254.38 L 844.09 248.27 L 839.98 247.61 C834.35,246.71 831.81,243.82 826.04,231.77 C820.33,219.84 815.96,214.32 809.58,210.93 C807.06,209.60 805.01,208.28 805.02,208.00 C805.03,207.73 812.68,198.59 822.02,187.70 C831.36,176.81 839.00,167.70 839.00,167.45 C839.00,167.20 834.33,167.00 828.62,167.00 L 818.24 167.00 L 808.37 178.35 C802.94,184.60 795.12,193.63 791.00,198.42 L 783.50 207.14 L 783.23 187.07 L 782.96 167.00 L 774.48 167.00 L 766.00 167.00 L 766.00 213.50 L 766.00 260.00 L 774.50 260.00 L 783.00 260.00 L 783.01 246.75 L 783.02 233.50 L 787.76 227.81 C796.26,217.60 801.45,220.17 810.77,239.21 C819.42,256.88 824.80,261.21 837.50,260.73 L 843.50 260.50 L 843.79 254.38 ZM 384.07 258.19 C388.94,256.57 395.62,250.65 398.23,245.64 C399.86,242.51 400.37,239.79 400.33,234.50 C400.26,223.39 396.26,216.83 387.06,212.72 L 382.62 210.74 L 386.30 208.85 C391.65,206.11 394.00,200.88 394.00,191.72 C394.00,181.17 390.62,174.66 383.00,170.50 L 377.50 167.50 L 351.25 167.18 L 325.00 166.85 L 325.00 213.48 L 325.00 260.12 L 352.75 259.75 C370.51,259.51 381.78,258.95 384.07,258.19 ZM 474.00 250.50 L 474.00 241.00 L 455.50 241.00 L 437.00 241.00 L 437.00 204.00 L 437.00 167.00 L 424.50 167.00 L 412.00 167.00 L 412.00 213.50 L 412.00 260.00 L 443.00 260.00 L 474.00 260.00 L 474.00 250.50 ZM 548.54 258.48 C556.70,256.39 561.83,252.59 565.21,246.12 C568.73,239.38 569.00,230.81 565.92,224.02 C563.33,218.31 561.46,216.27 556.50,213.77 C554.30,212.66 552.38,211.65 552.23,211.52 C552.07,211.39 553.71,209.52 555.87,207.37 C561.88,201.35 563.53,192.52 560.53,182.40 C558.84,176.73 554.46,171.96 548.50,169.34 C545.14,167.86 540.71,167.51 520.88,167.20 L 497.25 166.82 L 497.19 212.60 C497.15,237.78 497.35,258.75 497.62,259.19 C497.89,259.64 508.12,260.00 520.35,260.00 C537.00,260.00 544.08,259.62 548.54,258.48 ZM 593.92 250.75 C595.66,245.66 597.58,240.25 598.18,238.73 L 599.26 235.95 L 616.37 236.23 L 633.47 236.50 L 637.49 248.25 L 641.50 259.99 L 650.36 260.00 C658.40,260.00 659.15,259.84 658.51,258.25 C658.12,257.29 655.86,251.10 653.47,244.50 C651.09,237.90 646.14,224.40 642.48,214.50 C638.81,204.60 634.76,193.57 633.49,190.00 C632.21,186.43 629.83,179.90 628.19,175.50 L 625.21 167.50 L 616.43 167.50 L 607.65 167.50 L 605.85 172.00 C604.87,174.48 601.09,184.60 597.46,194.50 C593.83,204.40 587.07,222.65 582.43,235.05 C577.79,247.46 574.00,258.15 574.00,258.80 C574.00,259.64 576.54,260.00 582.37,260.00 L 590.75 260.00 L 593.92 250.75 ZM 688.00 229.44 C688.00,212.63 688.37,199.11 688.83,199.40 C689.29,199.68 692.50,204.77 695.97,210.71 C699.44,216.64 705.07,226.23 708.47,232.00 C711.87,237.77 716.87,246.42 719.58,251.22 L 724.50 259.94 L 733.25 259.97 L 742.00 260.00 L 742.00 213.50 L 742.00 167.00 L 734.00 167.00 L 726.00 167.00 L 726.00 198.08 C726.00,218.07 725.65,229.05 725.01,228.83 C724.47,228.65 716.20,214.77 706.63,198.00 L 689.24 167.50 L 680.12 167.21 L 671.00 166.92 L 671.00 213.46 L 671.00 260.00 L 679.50 260.00 L 688.00 260.00 L 688.00 229.44 ZM 0.12 148.75 C0.05,144.84 0.42,142.00 1.00,142.00 C2.14,142.00 2.14,148.02 1.00,152.50 C0.41,154.82 0.21,153.97 0.12,148.75 ZM 259.00 197.98 L 259.00 185.70 L 267.75 186.36 C277.89,187.13 280.84,188.73 282.78,194.50 C285.77,203.45 279.94,209.04 266.85,209.80 L 259.00 210.26 L 259.00 197.98 ZM 349.67 240.33 C349.30,239.97 349.00,235.42 349.00,230.24 L 349.00 220.81 L 358.40 221.15 C369.03,221.55 371.36,222.77 372.44,228.51 C373.29,233.07 370.85,238.73 367.48,240.01 C364.56,241.12 350.70,241.37 349.67,240.33 ZM 349.75 203.43 C349.34,203.01 349.00,198.85 349.00,194.20 L 349.00 185.72 L 356.75 186.42 C367.16,187.35 369.00,188.64 369.00,195.00 C369.00,199.27 368.63,200.20 366.33,201.70 C363.53,203.54 351.13,204.82 349.75,203.43 ZM 514.75 246.44 C514.34,246.01 514.00,239.44 514.00,231.83 L 514.00 218.00 L 524.75 218.02 C538.08,218.05 542.50,219.04 546.30,222.84 C550.14,226.67 551.01,233.75 548.31,239.00 C545.44,244.55 540.57,246.33 527.00,246.81 C520.67,247.03 515.16,246.86 514.75,246.44 ZM 514.00 193.50 L 514.00 181.00 L 525.05 181.00 C536.59,181.00 540.99,182.18 542.84,185.76 C544.45,188.88 545.02,194.45 544.07,197.76 C542.14,204.48 538.52,206.00 524.43,206.00 L 514.00 206.00 L 514.00 193.50 ZM 604.54 220.75 C606.83,213.13 615.53,189.00 615.99,189.00 C616.30,189.00 617.81,192.49 619.36,196.75 C620.90,201.01 623.48,208.03 625.08,212.34 C626.69,216.64 628.00,220.81 628.00,221.59 C628.00,222.73 625.67,223.00 615.93,223.00 C603.88,223.00 603.87,223.00 604.54,220.75 Z" fill="rgb(254,254,254)"/>
</g>
</svg>