<svg version="1.2" xmlns="http://www.w3.org/2000/svg" viewBox="0 0 1549 2086" width="1549" height="2086"><style>.a{fill:#ce171e}</style><path fill-rule="evenodd" class="a" d="m449 1754c241.4-74.8 475.5-170.4 678.1-326v77.8c-137.3 167-362.7 296.7-563.8 396.5-35.3 17.5-59.2 26.6-95.7 7.3-99.4-52.8-179.1-105.5-18.6-155.6zm219.4 146.4c148-48.9 323.3-128.6 458.7-232.9v77.7c-72.4 91.1-176.4 171.2-302.4 246.3-50.1 30.4-74.4 38.7-107.8 28.9-135.4-39.1-167.7-80.1-48.5-120zm734.2-1115.5c-339.6 53.5-702.7 188.2-980.9 396.5v-78.2c205.7-248.9 619.3-436.4 965.4-573 44.7-17.4 59.9-23.5 92.9 16.4 26.6 32.2 50.9 66.4 61.5 96 35.7 97.9-66 130.9-138.9 142.3zm-516 1238.9c101.7-54.7 165-92.6 240.9-159v121c0 102.1-133.9 115.4-235.6 85-38.7-11.4-32.7-32.6-5.3-47zm-740.4-723.3c340-53.5 703.2-188.2 981.3-396.5v78.2c-206 248.9-619.3 436.3-965.7 572.9-44.4 17.5-60 23.6-92.6-16.3-26.9-32.2-50.8-66.4-61.5-96-36-97.9 66.1-130.9 138.5-142.3zm1067.5-758.9c-276.3 76.3-562.8 208-792 376.8v-78.5c160.9-195.4 471.7-364.7 757-492.6 67.6-29.9 89.2-43.2 146.1 10.7 110.8 105.1 82.8 130.5-111.1 183.6zm-878.1 1002.9c276.2-76.3 562.7-207.9 791.9-376.8v78.6c-160.5 195.4-471.7 364.6-757 492.1-67.2 30.4-89.2 43.7-146.1-10.2-110.8-105.1-82.7-130.6 111.2-183.7zm327.1-1482.5c-101.7 54.6-165.1 92.6-241 159v-121.4c0-101.7 133.6-115 235.3-85 38.7 11.7 32.6 33 5.7 47.4zm217.8 123.3c-148 49-323.3 128.6-458.8 233v-78.2c72.5-91 176.5-170.7 302.5-246.2 50-30 74.3-38.4 107.7-28.9 135.9 39.5 168.1 80.5 48.6 120.3zm219.3 146.1c-240.9 74.8-475.4 170.8-678.1 326.3v-78.1c137.4-167 362.8-296.8 563.9-396.6 35.3-17.4 59.2-26.5 95.6-7.2 99.4 52.8 179.1 105.9 18.6 155.6z"/></svg>