<?xml version="1.0" encoding="UTF-8"?>
<svg version="1.1" xmlns="http://www.w3.org/2000/svg" width="1467" height="1247">
<path d="M0 0 C2.56648315 2.32095763 5.10874781 4.66689093 7.64208984 7.02392578 C10.17181394 9.35879276 12.74738262 11.621345 15.34521484 13.87939453 C26.03477733 23.48275954 35.67995929 34.39548579 44.53271484 45.69189453 C45.62217131 47.05157993 46.71205002 48.41092707 47.80224609 49.77001953 C55.70816785 59.69715074 62.90763998 69.87000855 69.53271484 80.69189453 C70.15025635 81.69373779 70.15025635 81.69373779 70.78027344 82.71582031 C95.36554899 122.82146388 112.24219464 166.62526991 121.53271484 212.69189453 C121.73832031 213.69397949 121.94392578 214.69606445 122.15576172 215.72851562 C139.11703997 299.97809726 125.56630741 387.58020944 104.80929041 469.81790853 C103.92967849 473.30627692 103.05433467 476.79571662 102.17843628 480.28501892 C100.51955174 486.89084628 98.85697096 493.49573718 97.19292748 500.10026664 C95.40989741 507.1777191 93.63089853 514.25618216 91.85230422 521.33475041 C87.82482043 537.36271717 83.78908136 553.38860036 79.75128174 569.41397095 C78.63166522 573.85763311 77.51235184 578.30137162 76.39306641 582.74511719 C68.14529796 615.48942195 59.89219925 648.23229642 51.5753479 680.95913696 C46.16479151 702.25366832 40.79177346 723.55760422 35.42724609 744.86376953 C35.24353879 745.59336884 35.0598315 746.32296814 34.87055731 747.07467651 C31.29988128 761.25576233 27.72982032 775.43700297 24.16235352 789.61889648 C23.62662433 791.74854052 23.09089396 793.87818425 22.55516267 796.00782776 C22.20046976 797.417838 21.84579112 798.82785183 21.49112678 800.23786926 C19.56824699 807.88232533 17.64370139 815.52635483 15.71438599 823.16918945 C15.19538895 825.22540383 14.67639775 827.28161968 14.15741324 829.33783722 C13.81353474 830.7002184 13.4696153 832.06258925 13.12565446 833.42494965 C11.04844049 841.65383711 8.98279941 849.88547606 6.93431002 858.1215632 C5.58517634 863.5452699 4.22926965 868.96725352 2.86861128 874.38808036 C2.07628916 877.54634492 1.28875102 880.70567344 0.50840187 883.86692047 C-3.89066888 901.67969846 -8.5337362 919.55380502 -17.40478516 935.75439453 C-18.04516724 936.9399292 -18.04516724 936.9399292 -18.69848633 938.14941406 C-22.05294822 944.21963127 -25.71070109 949.6198651 -30.46728516 954.69189453 C-30.92441895 955.19382324 -31.38155273 955.69575195 -31.85253906 956.21289062 C-48.26551651 974.12326685 -68.37068686 983.20702129 -91.46728516 989.69189453 C-92.61841797 990.03478516 -93.76955078 990.37767578 -94.95556641 990.73095703 C-112.82947084 995.22568741 -135.12085244 995.05641301 -152.46728516 988.69189453 C-154.04896484 988.13115234 -154.04896484 988.13115234 -155.66259766 987.55908203 C-167.10212683 983.14125874 -177.26423207 976.75783233 -186.46728516 968.69189453 C-187.23943359 968.02673828 -188.01158203 967.36158203 -188.80712891 966.67626953 C-200.03957842 956.30785459 -206.14567832 942.94636416 -206.93603516 927.71142578 C-206.9621408 925.64255384 -206.97248046 923.57342465 -206.96728516 921.50439453 C-206.99564453 920.52792969 -207.02400391 919.55146484 -207.05322266 918.54541016 C-207.07208054 910.95039559 -205.85304312 903.81171898 -204.34594727 896.39013672 C-204.12491805 895.29625169 -203.90388884 894.20236666 -203.67616177 893.0753336 C-201.09680424 880.56031661 -197.97282795 868.19206914 -194.81494141 855.81298828 C-194.16389921 853.24098949 -193.51338035 850.6688638 -192.86355591 848.09655762 C-191.47986244 842.62297931 -190.09202613 837.1504666 -188.70126343 831.67868042 C-186.49096912 822.98182372 -184.2903845 814.28252451 -182.09155273 805.58276367 C-181.71591276 804.09667842 -181.34026902 802.61059412 -180.96462154 801.12451077 C-180.39783403 798.88226178 -179.83105309 796.64001114 -179.26430959 794.39775103 C-177.92800226 789.11106355 -176.59065031 783.82464098 -175.25291443 778.53831482 C-167.67265716 748.58055937 -160.14951754 718.6086571 -152.65478516 688.62939453 C-152.34123329 687.37541492 -152.02768143 686.12143532 -151.70462799 684.82945633 C-143.06483975 650.27318382 -134.50433851 615.69907129 -126.10229492 581.08422852 C-125.31386996 577.83624654 -124.52537742 574.58828098 -123.73681641 571.34033203 C-123.53825609 570.52236963 -123.33969578 569.70440723 -123.13511848 568.8616581 C-119.21725964 552.72737558 -115.25756381 536.60345039 -111.29150391 520.48095703 C-110.97227952 519.18313527 -110.65305739 517.88531295 -110.33383751 516.58749008 C-107.48123017 504.99032638 -104.62752521 493.393433 -101.77072144 481.79730225 C-98.25605437 467.53009353 -94.74928986 453.26098472 -91.25500488 438.98876953 C-90.02958511 433.98415983 -88.80094451 428.98035079 -87.57019043 423.97705078 C-85.97569141 417.49414654 -84.39025491 411.00907644 -82.80959702 404.52278137 C-82.21526355 402.08902483 -81.61843809 399.65587505 -81.01874161 397.22343445 C-73.44103113 366.46767617 -67.46970769 335.42483286 -66.46728516 303.69189453 C-66.42603516 302.60263672 -66.38478516 301.51337891 -66.34228516 300.39111328 C-65.31947981 248.03626484 -80.75870048 195.9049294 -117.46728516 157.69189453 C-117.92651367 157.20156738 -118.38574219 156.71124023 -118.85888672 156.20605469 C-144.96508285 128.3987672 -179.7345384 111.5927621 -215.46728516 99.69189453 C-216.72774658 99.26118652 -216.72774658 99.26118652 -218.01367188 98.82177734 C-228.85352631 95.14567208 -239.869762 92.64197944 -251.09228516 90.44189453 C-252.34219238 90.19544189 -253.59209961 89.94898926 -254.87988281 89.69506836 C-271.39082749 86.58650641 -287.67530842 85.27843473 -304.46728516 85.31689453 C-305.37358673 85.31743835 -306.27988831 85.31798218 -307.21365356 85.31854248 C-325.20628425 85.36762382 -342.70176094 86.94961696 -360.46728516 89.69189453 C-361.18638062 89.80080017 -361.90547607 89.90970581 -362.6463623 90.02191162 C-433.88951337 100.81579292 -505.01190401 123.38322378 -561.46728516 169.69189453 C-562.99095703 170.91199219 -562.99095703 170.91199219 -564.54541016 172.15673828 C-572.57044334 178.71697064 -579.93698117 185.95195175 -587.27978516 193.25439453 C-587.7678363 193.73717865 -588.25588745 194.21996277 -588.75872803 194.71737671 C-595.45544727 201.35815139 -601.64945552 208.26385598 -607.46728516 215.69189453 C-608.01602295 216.39193604 -608.56476074 217.09197754 -609.13012695 217.81323242 C-620.14958573 232.05851538 -629.97269111 246.80916164 -638.46728516 262.69189453 C-638.79937988 263.30548828 -639.13147461 263.91908203 -639.47363281 264.55126953 C-660.12545125 303.0000056 -669.8733255 346.41548083 -678.96728516 388.75830078 C-679.19230524 389.80577799 -679.19230524 389.80577799 -679.42187119 390.87441635 C-680.91498194 397.83409832 -682.39527577 404.79630171 -683.84628391 411.76488876 C-690.45796243 443.49007193 -698.92872272 474.69895054 -707.50294495 505.94068146 C-709.33905944 512.6340385 -711.16934188 519.32899537 -713.00056076 526.02369308 C-713.47634071 527.76290317 -713.95223464 529.50208208 -714.42824173 531.24123001 C-718.01975243 544.36388191 -721.58276234 557.49402023 -725.12744141 570.62939453 C-741.590003 631.62025099 -741.590003 631.62025099 -749.71447754 660.29559326 C-750.40965952 662.75661076 -751.09944734 665.21916023 -751.78308105 667.68341064 C-760.56096581 699.26022724 -774.27526456 726.44980767 -803.48583984 743.57910156 C-825.37487157 755.8721285 -847.67369475 760.91193664 -872.65478516 761.06689453 C-873.32566162 761.07484039 -873.99653809 761.08278625 -874.68774414 761.0909729 C-896.59924572 761.2902719 -916.79628493 755.50518426 -933.02587891 740.21533203 C-947.72866927 725.01852791 -957.80958612 702.78585521 -958.02038574 681.48817444 C-957.71895658 669.58617757 -953.78284964 658.11939431 -950.56232834 646.74292755 C-949.53747478 643.10275168 -948.53896429 639.45535306 -947.5378418 635.80859375 C-945.79031842 629.45347341 -944.0293496 623.10221217 -942.26074219 616.75292969 C-939.40837415 606.50628978 -936.60286295 596.24707992 -933.80712891 585.98486328 C-933.56825644 585.10819 -933.32938396 584.23151672 -933.08327293 583.32827759 C-932.10464349 579.73636039 -931.12618901 576.14439567 -930.14814663 572.55231857 C-928.38379843 566.07278088 -926.61563932 559.59429095 -924.84594727 553.11621094 C-914.84894925 516.51278817 -905.00177202 479.86949903 -895.17127991 443.22106934 C-891.8044386 430.66995477 -888.43233495 418.12026675 -885.0555172 405.57183266 C-884.28233343 402.69856683 -883.50928648 399.82526423 -882.73628235 396.95195007 C-878.46111654 381.06112914 -878.46111654 381.06112914 -876.55593872 373.98629761 C-870.70936496 352.27423836 -864.89210225 330.55483167 -859.13196945 308.819664 C-857.30397153 301.9251017 -855.47177243 295.03165408 -853.63984871 288.138134 C-852.17312537 282.61663164 -850.7097314 277.09429131 -849.25421143 271.56982422 C-834.01406698 213.73843332 -834.01406698 213.73843332 -823.09228516 189.31689453 C-822.82037354 188.70089386 -822.54846191 188.08489319 -822.26831055 187.45022583 C-804.51712612 147.2391824 -779.74699377 111.33545144 -749.86767578 79.20996094 C-748.45466762 77.67821673 -747.06077003 76.13092397 -745.67041016 74.57861328 C-737.7372286 65.76787338 -729.20967083 57.69291832 -720.46728516 49.69189453 C-719.52498047 48.82306641 -718.58267578 47.95423828 -717.61181641 47.05908203 C-711.74570234 41.70590321 -705.65251153 36.67044238 -699.46728516 31.69189453 C-698.33414819 30.76651045 -697.20135067 29.8407106 -696.06884766 28.91455078 C-657.56318304 -2.42181271 -614.74013087 -28.05888966 -570.46728516 -50.30810547 C-569.5035498 -50.79730469 -568.53981445 -51.28650391 -567.546875 -51.79052734 C-491.3160321 -90.32269744 -406.97229058 -112.28198447 0 0 Z " fill="#00579B" transform="translate(1337.46728515625,109.30810546875)"/>
<path d="M0 0 C1.32547852 0.38720215 1.32547852 0.38720215 2.67773438 0.78222656 C22.0824861 6.55760257 46.21856732 14.29293079 57 33 C61.5831004 42.55227719 63.21134621 50.43773694 63.3125 60.9375 C63.34150391 61.87529297 63.37050781 62.81308594 63.40039062 63.77929688 C63.59247558 86.460097 55.84027594 109.3341395 50.24957657 131.13003922 C49.31310189 134.78619154 48.38241337 138.44380751 47.4516325 142.10141277 C40.56359751 169.16554278 33.56327316 196.20062618 26.53411865 223.22839355 C9.64985573 288.15053043 -6.9345106 353.15503363 -23.07958984 418.26513672 C-24.41614222 423.65341854 -25.7580715 429.04032376 -27.10400391 434.42626953 C-35.89780833 469.62190933 -44.47078206 504.86336731 -52.6892662 540.19818878 C-53.30216961 542.83063059 -53.91713818 545.46258213 -54.53262329 548.09442139 C-66.22783391 598.15151888 -77.7518397 651.64607045 -67 703 C-66.79600586 704.00144043 -66.59201172 705.00288086 -66.38183594 706.03466797 C-62.16459186 726.22157796 -55.79274272 744.85728518 -46 763 C-45.18789063 764.53333984 -45.18789063 764.53333984 -44.359375 766.09765625 C-19.24254442 811.39329975 26.3731465 838.9847793 75 853 C164.04848479 877.29843739 267.92917143 867.80651206 351 828 C351.82838379 827.60699707 352.65676758 827.21399414 353.51025391 826.80908203 C390.12961756 809.34749425 422.45511482 784.76000115 451.0625 756.125 C451.94156006 755.24513428 452.82062012 754.36526855 453.72631836 753.45874023 C458.79045983 748.34641833 463.60780306 743.22763818 468.01953125 737.5390625 C469.89460779 735.13511821 471.85986209 732.83340608 473.86328125 730.53613281 C506.22370574 693.23048853 520.27527453 649.00830059 530.24609375 601.40234375 C536.15423099 573.31192023 543.27307643 545.71592564 550.9609375 518.07373047 C551.84143508 514.90730689 552.72160636 511.74079283 553.6015625 508.57421875 C553.93251293 507.3839785 553.93251293 507.3839785 554.27014923 506.16969299 C559.39009527 487.74054059 564.25242787 469.24567747 569.08366013 450.73909378 C570.19168955 446.49615246 571.30214694 442.25384667 572.41235352 438.01147461 C573.71278588 433.04125763 575.01297242 428.07097664 576.31233215 423.10047913 C585.40736884 388.3089211 594.55352827 353.54276736 604.5625 319 C604.8888443 317.86899872 605.2151886 316.73799744 605.55142212 315.57272339 C608.71736224 304.62841585 611.98011875 293.73419571 615.71484375 282.96875 C615.98655899 282.18193848 616.25827423 281.39512695 616.53822327 280.58447266 C619.33564504 272.70126043 623.00569755 265.33547421 627 258 C627.82951172 256.43378906 627.82951172 256.43378906 628.67578125 254.8359375 C642.48315381 229.85744489 664.56927529 211.28120429 692 203 C722.93007059 194.62648666 759.66409872 194.03311488 788.8125 208.75 C794.57149546 212.08370422 799.30228996 216.31886036 804 221 C804.57621094 221.55300781 805.15242188 222.10601562 805.74609375 222.67578125 C816.42162876 233.85043218 819.21353538 249.9170403 819.375 264.75 C819.38901855 265.60585693 819.40303711 266.46171387 819.41748047 267.34350586 C819.2963341 284.14402221 814.23330488 300.5876328 809.9375 316.6875 C809.6260907 317.86340698 809.3146814 319.03931396 808.99383545 320.25085449 C795.87943736 369.76053243 781.97236284 419.0634688 768.19091797 468.390625 C754.43579526 517.62632118 740.86166097 566.91391518 727.9375 616.375 C727.76206791 617.04591045 727.58663582 617.71682091 727.4058876 618.40806198 C723.76719599 632.3259255 720.16663937 646.25216661 716.703125 660.21484375 C710.82221671 683.88100721 704.3220582 707.06791509 696 730 C695.55865723 731.22589844 695.11731445 732.45179688 694.66259766 733.71484375 C676.7538733 782.87129724 649.93810627 829.94780513 615 869 C614.175 869.92425781 613.35 870.84851562 612.5 871.80078125 C611.08180085 873.37948605 609.65955458 874.9545808 608.23046875 876.5234375 C606.97257252 877.92012088 605.72179869 879.32355187 604.49633789 880.7487793 C599.90335176 886.08339974 595.05168805 891.09857366 590.0625 896.0625 C588.92264648 897.2081543 588.92264648 897.2081543 587.75976562 898.37695312 C583.0028652 903.12572904 578.10463711 907.62947682 573 912 C571.91702776 912.94944858 570.83494923 913.89991784 569.75390625 914.8515625 C560.81121147 922.65207426 551.52386899 929.92410877 542 937 C541.26201172 937.54833496 540.52402344 938.09666992 539.76367188 938.66162109 C515.49014037 956.61370076 489.70934718 971.96230608 463 986 C462.0733252 986.48936035 461.14665039 986.9787207 460.19189453 987.48291016 C430.27729602 1003.17572723 398.84154265 1015.81211762 367 1027 C366.28215332 1027.25267639 365.56430664 1027.50535278 364.82470703 1027.76568604 C346.40333734 1034.2335211 327.8164787 1040.07408587 309.0625 1045.5 C307.78111649 1045.87476974 307.78111649 1045.87476974 306.47384644 1046.2571106 C276.34473704 1055.03164242 246.19762212 1057.85145747 214.9375 1058.5625 C214.04814758 1058.58301422 213.15879517 1058.60352844 212.24249268 1058.62466431 C179.15670333 1059.36714442 145.99039137 1060.04310415 113 1057 C112.31456116 1056.93683594 111.62912231 1056.87367187 110.9229126 1056.80859375 C57.14111261 1051.79090631 2.98209874 1040.39670376 -46 1017 C-46.73508789 1016.6498584 -47.47017578 1016.2997168 -48.22753906 1015.93896484 C-52.21255661 1014.02340813 -56.15719847 1012.039941 -60.07861328 1009.99755859 C-62.0759144 1008.96058625 -64.08241284 1007.94298687 -66.08984375 1006.92578125 C-91.29335896 994.02509823 -114.53363903 977.42809181 -135.41796875 958.3359375 C-137.52109231 956.43326293 -139.64991251 954.57500442 -141.796875 952.72265625 C-146.05782515 949.0016159 -150.07516084 945.07304385 -154.0625 941.0625 C-154.73087891 940.39798828 -155.39925781 939.73347656 -156.08789062 939.04882812 C-160.59681937 934.53113567 -164.8619972 929.85864271 -169 925 C-169.54438721 924.36231689 -170.08877441 923.72463379 -170.6496582 923.06762695 C-210.38401873 876.1733891 -240.00677295 820.34104186 -256 761 C-256.36665771 759.66291992 -256.36665771 759.66291992 -256.74072266 758.29882812 C-259.7859913 747.03806283 -261.84713008 735.63422006 -263.6875 724.125 C-263.99143677 722.24711792 -263.99143677 722.24711792 -264.30151367 720.33129883 C-267.46447873 699.66580208 -268.37867821 679.0751548 -268.3125 658.1875 C-268.31067719 656.98589233 -268.30885437 655.78428467 -268.30697632 654.54626465 C-268.25690526 634.85773831 -267.47214647 615.53357491 -265 596 C-264.82647199 594.58677439 -264.65313665 593.17352512 -264.47998047 591.76025391 C-262.50839631 575.95490484 -260.01386288 560.27074167 -256.875 544.65625 C-256.72682579 543.91594103 -256.57865158 543.17563206 -256.42598724 542.41288948 C-253.0450458 525.60308584 -249.01831844 508.96859989 -244.85089493 492.33914948 C-244.02183409 489.02556928 -243.19887556 485.71048261 -242.37553501 482.39547729 C-235.87988475 456.25115664 -229.20869277 430.15226323 -222.47509766 404.06835938 C-218.00589776 386.75117135 -213.57770547 369.4243755 -209.20703125 352.08203125 C-208.9595986 351.10025532 -208.71216595 350.11847939 -208.45723534 349.10695267 C-207.19140222 344.08349629 -205.92612291 339.05990056 -204.66104126 334.03625488 C-195.93620886 299.3920386 -187.10855372 264.77737336 -178.10766602 230.20385742 C-177.25006233 226.90936858 -176.39257455 223.61484959 -175.53515625 220.3203125 C-175.32029634 219.49489519 -175.10543644 218.66947788 -174.88406563 217.81904793 C-170.93261907 202.63456725 -167.02264461 187.43955607 -163.12109375 172.2421875 C-162.52866793 169.93549034 -161.93622003 167.62879884 -161.34375 165.32211304 C-158.73553377 155.16627925 -156.12867967 145.01010395 -153.52765179 134.85242653 C-152.45279469 130.6572935 -151.37558707 126.46276635 -150.29783821 122.2683754 C-149.80100037 120.33263559 -149.30515535 118.39664061 -148.81045341 116.46035385 C-146.27329584 106.53120694 -143.66597379 96.62478828 -140.89233398 86.75878906 C-140.65946969 85.91826366 -140.4266054 85.07773827 -140.18668461 84.2117424 C-134.44833787 64.06614168 -123.9045592 47.440032 -110 32 C-109.40703125 31.33484375 -108.8140625 30.6696875 -108.203125 29.984375 C-94.31652447 15.27282791 -75.3866155 5.22355686 -56 0 C-54.89527344 -0.31710938 -53.79054687 -0.63421875 -52.65234375 -0.9609375 C-36.03033209 -5.04616697 -16.41548156 -4.9185815 0 0 Z " fill="#D9251C" transform="translate(268,188)"/>
</svg>
